<svg viewBox="248 -2 156 159" role="img" aria-labelledby="favicon-title favicon-desc" focusable="false"><title id="favicon-title">Favicon da ASOF</title><desc id="favicon-desc">Ícone reduzido do logo da ASOF</desc><style>:root{--asof-st0:#548db7;--asof-st1:#b7d1e8;--asof-st2:#c9dded;--asof-st3:#93a6b5;--asof-st4:#436b8b;--asof-st5:#6797be;--asof-st6:#79a3c3;--asof-st7:#dce7f4;--asof-st8:#b8bcc1;--asof-st9:#a6b0bb;--asof-fl1:#a4c7e1;--asof-fl2:#04528d;--asof-fl3:#c9dbee;--asof-fl4:#eef3f9;--asof-fl5:#828488}@media (prefers-color-scheme:dark){:root{--asof-fl2:#2d82cc;--asof-st4:#6ba4d0;--asof-fl5:#b8bcc1;--asof-st3:#b8bcc1}}.st0{stroke:var(--asof-st0)}.st1{stroke:var(--asof-st1)}.st2{stroke:var(--asof-st2)}.st3{stroke:var(--asof-st3)}.st4{stroke:var(--asof-st4)}.st5{stroke:var(--asof-st5)}.st6{stroke:var(--asof-st6)}.st7{stroke:var(--asof-st7)}.st8{stroke:var(--asof-st8)}.st9{stroke:var(--asof-st9)}.fl1{fill:var(--asof-fl1)}.fl2{fill:var(--asof-fl2)}.fl3{fill:var(--asof-fl3)}.fl4{fill:var(--asof-fl4)}.fl5{fill:var(--asof-fl5)}.grp{stroke-width:2.00;fill:none;stroke-linecap:butt}</style><g class="grp" vector-effect="non-scaling-stroke"><path class="st0" d=" M334.09 1.81 L333.5 4.54" /><path class="st1" d=" M333.5 4.54 Q333.23 4.68 332.74 4.7" /><path class="st2" d=" M332.74 4.7 Q321.67 4.65 311.32 7.98 Q303.32 10.56 297.07 15.06 Q290.22 19.99 286.1 26.58 Q280.68 35.24 278.44 43.17 Q276.04 51.65 275.09 61.26" /><path class="st0" d=" M275.09 61.26 Q271.18 63.31 268.42 66.55 A0.48 0.48 0 0 1 267.57 66.25 Q267.55 65.59 267.02 65.26 A0.78 0.76 44.4 0 0 266.21 65.26 L262.17 67.79 A0.53 0.53 0 0 1 261.37 67.26 L261.42 66.96 A0.56 0.56 0 0 0 260.45 66.5 L256.62 70.74 A1.39 1.37 -19.2 0 0 256.29 71.41 L255.76 74.67 A1.75 1.74 -1.8 0 1 254.42 76.09 Q252.49 76.52 252.47 77.52" /><path class="st3" d=" M252.47 77.52 L251.78 77.46" /><path class="st3" d=" M252 75.55 Q252.72 68.84 254.44 59.57 Q255.17 55.58 256.22 52.9" /><path class="st0" d=" M256.22 52.9 Q259.24 54.04 260.26 51.95 A0.49 0.48 -67.2 0 0 259.99 51.28 L257.29 50.35" /><path class="st3" d=" M257.29 50.35 Q257.11 49.71 257.24 49.43 Q259.92 43.94 262.11 38.09" /><path class="st4" d=" M257.29 50.35 Q256.55 51.39 256.22 52.9" /><path class="st5" d=" M287.96 65.85 Q289.86 82.23 301.89 94.6 Q305.33 98.13 306.52 99.23 A0.65 0.64 -39.5 0 0 307.3 99.3 Q307.66 99.06 308.23 98.95 Q321.25 96.45 332.66 89.89 A0.25 0.25 0 0 1 333.04 90.09 L333.91 99.71 A5.55 5.5 -44.7 0 1 333.9 100.81 L333.39 105.28 A1.28 1.27 74.8 0 1 332.89 106.16 L325.93 111.35 A0.78 0.73 77.5 0 0 325.64 111.84 L325.41 113.2 A0.4 0.4 0 0 1 324.79 113.47 Q315.55 107.49 308.23 100.32 A0.12 0.12 0 0 0 308.06 100.31 L308 100.37 A0.26 0.26 0 0 0 307.97 100.73 Q315.11 109.35 322.7 117.54 Q323.64 118.56 326.08 120.61" /><path class="st6" d=" M326.08 120.61 Q326.56 122.82 324.61 123.8 A0.65 0.65 0 0 0 324.35 124.72 L324.88 125.56 A1.28 1.28 0 0 1 324.98 126.71 Q323.2 131.15 320.8 132.31 A0.46 0.45 -31.2 0 0 320.63 132.99 L321.79 134.54 A0.7 0.7 0 0 1 321.78 135.39 C320.86 136.57 317.77 140.51 318.28 142.61 A1.47 1.44 52.4 0 1 318.16 143.6 L317.91 144.08 A1.16 1.15 43.8 0 0 317.94 145.19 Q318.84 146.75 319.09 148.49" /><path class="st4" d=" M319.09 148.49 Q318.94 149.01 318.26 148.89 Q316.91 148.63 313.59 148.38 Q313.03 148.33 312.58 147.91 A1.18 1.17 66 0 0 311.75 147.59 Q308.28 147.65 305.76 145.82" /><path class="st6" d=" M305.76 145.82 Q305.68 145.27 305.21 145 Q304.8 144.76 304.24 144.81 Q303.44 144.87 303.13 144.74 A1.62 1.62 0 0 1 302.22 143.63 L301.35 139.81 A2.97 2.9 -67.9 0 0 300.97 138.88 L290.78 122.59 A0.55 0.54 -31.9 0 1 290.96 121.84 Q291.54 121.47 291.6 121.3 A0.49 0.49 0 0 0 291.12 120.63 Q289.06 120.72 288.48 118.86 A1.31 1.29 -89.7 0 0 287.66 118.02 C285.56 117.31 282.43 117.66 280.54 116.01" /><path class="st5" d=" M280.54 116.01 L278.15 114.06 A0.45 0.45 0 0 1 278.4 113.26 Q285.12 112.68 290.74 110.64 Q299.3 107.53 304.98 100.3 A0.3 0.3 0 0 0 304.6 99.85 Q288.31 108.61 269.55 106.02 Q267.28 105.7 265.25 103.26 Q260.46 97.49 257.75 91.74" /><path class="st0" d=" M257.75 91.74 L257.54 80.72 A0.6 0.6 0 0 0 256.63 80.21 L253.14 82.33" /><path class="st4" d=" M253.14 82.33 L252.47 77.52" /><path class="st5" d=" M351.61 5.87 Q344.5 8.31 337.65 11.13 Q336.09 11.77 334.96 12.66" /><path class="st1" d=" M334.96 12.66 Q334.36 12.69 334.11 12.83" /><path class="st7" d=" M334.11 12.83 L332.74 4.7" /><path class="st2" d=" M334.11 12.83 C319.62 20.11 310.48 31.94 310.44 48.51 A0.39 0.39 0 0 1 309.67 48.63 L305.54 35.82 A0.51 0.51 0 0 0 304.61 35.72 Q299.26 44.77 297.19 54.91 C296.67 57.49 296.63 60.62 296.26 63.49" /><path class="st7" d=" M296.26 63.49 Q295.64 63.74 293.37 63.85 Q291.97 63.92 289.01 65.37 Q288.23 65.75 287.92 64.51" /><path class="st2" d=" M287.92 64.51 C286.86 57.74 287.81 50.35 288.71 43.96 A0.41 0.4 75.9 0 0 288.07 43.57 Q283.86 46.66 281.46 51.69 Q279.88 54.99 276.76 63.74" /><path class="st6" d=" M276.76 63.74 L275.47 66.52 A0.37 0.37 0 0 1 274.77 66.34 L275.09 61.26" /><path class="st3" d=" M253.14 82.33 Q252.16 84.35 253.34 86.51" /><path class="st8" d=" M253.34 86.51 Q256.27 106.92 269.98 122.76 Q284.32 139.32 304.48 145.92 Q304.85 146.04 305.76 145.82" /><path class="st8" d=" M319.09 148.49 L334.51 148.73" /><path class="st3" d=" M334.51 148.73 Q334.98 149.22 335.06 149.8" /><path class="st3" d=" M281.83 136.02 L270.85 125.75" /><path class="st5" d=" M349.49 4.84 Q349.33 5.5 348.75 5.46 Q339.79 4.69 333.5 4.54" /><path class="st2" d=" M375.19 130.65 Q361.42 142.83 343.31 146.88 Q338.95 147.85 334.51 148.73" /><path class="st5" d=" M296.35 64.25 C296.19 76.16 300.59 87.74 306.25 98.14 A0.73 0.73 0 0 0 307.25 98.43 Q320.01 91.11 331.88 81.39" /><path class="st9" d=" M283.24 137.26 Q283.82 137 284.11 137.2 Q292.29 142.9 302.13 146.12 A1.63 1.52 -11.5 0 1 302.75 146.5 L303.18 146.93 A1.27 1.26 65.7 0 0 304.14 147.3 Q305.2 147.24 307.06 147.7 Q320 150.98 335.06 149.8" /><path class="st1" d=" M335.06 149.8 Q343.87 148.92 347.61 147.35 Q352.34 145.36 357.51 143.61 A3.78 3.55 -68.6 0 0 358.31 143.23 Q360.3 142 362.29 141.29 A3.98 3.88 17.2 0 0 363.17 140.84 Q369.58 136.39 370.3 136.03 C371.92 135.24 373.44 133.31 375.38 131.79 A0.64 0.61 75.3 0 0 375.62 131.36 Q375.68 130.77 375.19 130.65" /><path class="st7" d=" M375.19 130.65 L385.73 119.46 A0.65 0.64 26.2 0 0 385.36 118.38 Q384.69 118.27 383.92 118.72 C375.26 123.78 362.44 119.74 354.86 115.76 A0.6 0.59 18.5 0 0 354 116.18 L352.87 123.09 A0.58 0.56 -81.3 0 1 352.23 123.57 Q338.75 121.71 326.86 114.67 A0.57 0.57 0 0 0 326.13 115.53 Q327.95 117.67 326.08 120.61" /><path class="st1" d=" M287.92 64.51 Q287.64 65.02 287.96 65.85" /><path class="st0" d=" M287.96 65.85 Q282.11 63.8 276.76 63.74" /><path class="st1" d=" M257.75 91.74 L257.33 91.45" /><path class="st2" d=" M257.33 91.45 L254.4 85.11 A0.53 0.53 0 0 0 253.4 85.42 Q253.49 85.93 253.34 86.51" /><path class="st7" d=" M257.33 91.45 L257.37 97.32 A1.36 1.34 -64.8 0 0 257.67 98.17 C258.61 99.32 259.95 99.15 260.15 100.93 Q260.49 103.86 260.71 105.49 A1.16 1.16 0 0 0 261.88 106.49 Q264.04 106.45 266.17 107.42 A2.59 2.58 -11.4 0 1 266.79 107.83 Q271.77 112.31 275.02 115.22 Q277.62 117.55 280.54 116.01" /><path class="st2" d=" M375.16 29.16 Q375.09 29.58 374.7 29.94 Q359.92 44.08 342.87 54.87 Q339.55 56.98 335.12 59.18 A0.4 0.4 0 0 0 335.26 59.94 Q343.48 60.71 350.99 58.14 A0.3 0.3 0 0 1 351.34 58.57 Q344 71.09 332.8 80.59" /><path class="st0" d=" M332.8 80.59 L333.85 74.84 A2.19 2.17 -62.2 0 0 333.27 72.93 Q332.04 71.67 331.68 70.6 A0.89 0.88 84.3 0 0 330.98 70.02 L322.22 68.75 A0.73 0.72 -54.1 0 0 321.8 68.82 L317.19 71.11 A0.88 0.84 -57.7 0 1 316.79 71.21 L305.32 71.21 A0.9 0.9 0 0 1 304.42 70.31 L304.42 69.02 A1.07 1.07 0 0 0 304.05 68.21 C301.66 66.12 298.6 62.89 296.35 64.25" /><path class="st1" d=" M296.35 64.25 L296.26 63.49" /><path class="st6" d=" M351.72 5.77 Q359.22 8.58 361.24 10 Q363 11.23 364.17 11.88 Q366.63 13.24 366.66 13.26 Q386.24 26.37 395.04 47.53 Q398.81 56.6 399.52 68.36 Q400.16 79.1 398.57 89.73" /><path class="st5" d=" M398.57 89.73 L398.12 91.62 A0.31 0.31 0 0 1 397.57 91.74 Q397 90.99 397.09 90.24 Q397.54 86.67 397.52 82.87" /><path class="st0" d=" M397.52 82.87 C398.01 76.9 396.75 72.85 394.86 66.11 Q394.31 64.16 393.88 55.48 A2.14 2.09 -59.3 0 0 393.69 54.7 L389.93 46.55 A2.58 2.43 13 0 0 389.47 45.86 L382.68 38.63 A2.94 2.92 12.8 0 1 382.12 37.75 L380.44 33.64" /><path class="st5" d=" M380.44 33.64 Q381.02 29.69 379.95 25.22 A0.42 0.41 -30.5 0 0 379.24 25.04 L375.45 29.09" /><path class="st6" d=" M375.45 29.09 L375.16 29.16" /><path class="st0" d=" M375.16 29.16 L373.08 27.68 A1.5 1.5 0 0 0 370.75 28.54 Q370.26 30.49 368.79 32.1 A0.96 0.93 -73.8 0 1 368.28 32.39 L365.19 33.05 A1.06 1.05 -87.6 0 0 364.4 33.78 Q364.11 34.74 363.52 35.47 A1.1 1.1 0 0 1 362.67 35.87 L359.84 35.87 A0.79 0.73 -27.3 0 1 359.44 35.76 L341.77 25.56 A1.18 1.16 13.2 0 1 341.19 24.65 L340.86 21.03 A1.29 1.27 -72.4 0 0 340.44 20.2 C338.13 18.13 335.02 16.03 334.96 12.66" /><path class="st1" d=" M397.52 82.87 Q394.08 85.41 391.77 84.96 Q388.13 84.25 387.81 75.68 A0.22 0.22 0 0 0 387.45 75.53 L387.43 75.54 A1.07 1.06 -18.1 0 0 387.07 76.24 Q386.06 86.46 376.24 86.73 C370.07 86.9 361.41 86.16 354.19 86.99 C348.19 87.67 342.37 89.6 337.6 86.19" /><path class="st7" d=" M398.53 98.2 L398.57 89.73" /><path class="st2" d=" M380.02 35.01 Q378.74 41.11 378.13 42.88 Q370.71 64.44 356.2 82.23 A0.25 0.24 -18.4 0 1 355.77 82.02 Q357.51 75.46 355.82 68.53 A0.47 0.46 -33.1 0 0 355 68.36 Q347.38 78.13 337.6 86.19" /><path class="st7" d=" M337.6 86.19 L333.99 88.69 A0.86 0.86 0 0 1 332.97 88.66 C331.43 87.48 331.28 86.72 331.93 84.48 Q332.44 82.76 331.88 81.39" /><path class="st6" d=" M331.88 81.39 L332.8 80.59" /><path class="st1" d=" M380.44 33.64 L380.02 35.01" /><path class="st7" d=" M380.02 35.01 Q380.27 33.02 379.66 31.59 Q379.25 30.63 377.79 30.13 Q376.54 29.7 375.45 29.09" /></g><g><path class="fl1" d=" M334.09 1.81 L333.5 4.54 Q333.23 4.68 332.74 4.7 Q321.67 4.65 311.32 7.98 Q303.32 10.56 297.07 15.06 Q290.22 19.99 286.1 26.58 Q280.68 35.24 278.44 43.17 Q276.04 51.65 275.09 61.26 Q271.18 63.31 268.42 66.55 A0.48 0.48 0 0 1 267.57 66.25 Q267.55 65.59 267.02 65.26 A0.78 0.76 44.4 0 0 266.21 65.26 L262.17 67.79 A0.53 0.53 0 0 1 261.37 67.26 L261.42 66.96 A0.56 0.56 0 0 0 260.45 66.5 L256.62 70.74 A1.39 1.37 -19.2 0 0 256.29 71.41 L255.76 74.67 A1.75 1.74 -1.8 0 1 254.42 76.09 Q252.49 76.52 252.47 77.52 L251.78 77.46 Q251.71 76.18 252 75.55 Q252.72 68.84 254.44 59.57 Q255.17 55.58 256.22 52.9 Q259.24 54.04 260.26 51.95 A0.49 0.48 -67.2 0 0 259.99 51.28 L257.29 50.35 Q257.11 49.71 257.24 49.43 Q259.92 43.94 262.11 38.09 C267.52 27.53 276.86 19 287.07 12.55 Q299.46 4.72 314.26 2.32 Q319.91 1.41 327.61 1.17 C329.71 1.1 331.88 1.68 334.09 1.81 Z" /><path class="fl2" d=" M349.49 4.84 Q349.33 5.5 348.75 5.46 Q339.79 4.69 333.5 4.54 L334.09 1.81 C339.7 2.19 344.33 3.64 349.49 4.84 Z" /><path class="fl3" d=" M349.49 4.84 Q350.38 4.91 351.61 5.87 Q344.5 8.31 337.65 11.13 Q336.09 11.77 334.96 12.66 Q334.36 12.69 334.11 12.83 L332.74 4.7 Q333.23 4.68 333.5 4.54 Q339.79 4.69 348.75 5.46 Q349.33 5.5 349.49 4.84 Z" /><path class="fl4" d=" M332.74 4.7 L334.11 12.83 C319.62 20.11 310.48 31.94 310.44 48.51 A0.39 0.39 0 0 1 309.67 48.63 L305.54 35.82 A0.51 0.51 0 0 0 304.61 35.72 Q299.26 44.77 297.19 54.91 C296.67 57.49 296.63 60.62 296.26 63.49 Q295.64 63.74 293.37 63.85 Q291.97 63.92 289.01 65.37 Q288.23 65.75 287.92 64.51 C286.86 57.74 287.81 50.35 288.71 43.96 A0.41 0.4 75.9 0 0 288.07 43.57 Q283.86 46.66 281.46 51.69 Q279.88 54.99 276.76 63.74 L275.47 66.52 A0.37 0.37 0 0 1 274.77 66.34 L275.09 61.26 Q276.04 51.65 278.44 43.17 Q280.68 35.24 286.1 26.58 Q290.22 19.99 297.07 15.06 Q303.32 10.56 311.32 7.98 Q321.67 4.65 332.74 4.7 Z" /><path class="fl2" d=" M351.61 5.87 Q351.67 5.82 351.72 5.77 Q359.22 8.58 361.24 10 Q363 11.23 364.17 11.88 Q366.63 13.24 366.66 13.26 Q386.24 26.37 395.04 47.53 Q398.81 56.6 399.52 68.36 Q400.16 79.1 398.57 89.73 L398.12 91.62 A0.31 0.31 0 0 1 397.57 91.74 Q397 90.99 397.09 90.24 Q397.54 86.67 397.52 82.87 C398.01 76.9 396.75 72.85 394.86 66.11 Q394.31 64.16 393.88 55.48 A2.14 2.09 -59.3 0 0 393.69 54.7 L389.93 46.55 A2.58 2.43 13 0 0 389.47 45.86 L382.68 38.63 A2.94 2.92 12.8 0 1 382.12 37.75 L380.44 33.64 Q381.02 29.69 379.95 25.22 A0.42 0.41 -30.5 0 0 379.24 25.04 L375.45 29.09 L375.16 29.16 L373.08 27.68 A1.5 1.5 0 0 0 370.75 28.54 Q370.26 30.49 368.79 32.1 A0.96 0.93 -73.8 0 1 368.28 32.39 L365.19 33.05 A1.06 1.05 -87.6 0 0 364.4 33.78 Q364.11 34.74 363.52 35.47 A1.1 1.1 0 0 1 362.67 35.87 L359.84 35.87 A0.79 0.73 -27.3 0 1 359.44 35.76 L341.77 25.56 A1.18 1.16 13.2 0 1 341.19 24.65 L340.86 21.03 A1.29 1.27 -72.4 0 0 340.44 20.2 C338.13 18.13 335.02 16.03 334.96 12.66 Q336.09 11.77 337.65 11.13 Q344.5 8.31 351.61 5.87 Z" /><path class="fl4" d=" M398.53 98.2 L398.57 89.73 Q400.16 79.1 399.52 68.36 Q398.81 56.6 395.04 47.53 Q386.24 26.37 366.66 13.26 Q366.63 13.24 364.17 11.88 Q363 11.23 361.24 10 Q359.22 8.58 351.72 5.77 L356.57 6.5 A0.96 0.96 0 0 1 357.32 7.06 Q357.75 7.99 359 8.03 C360.71 8.09 361.42 10.03 363.49 10.05 A1.13 1.12 72.8 0 1 364.39 10.53 Q365.14 11.57 367.04 12 A1.34 1.31 -11.4 0 1 367.81 12.5 Q369.67 14.98 372.77 15.79 A0.75 0.74 4.1 0 1 373.32 16.42 Q373.43 17.34 374.52 17.33 A0.63 0.62 -23 0 1 374.95 17.5 L381.52 24.08 A0.64 0.64 0 0 0 381.88 24.26 L382.43 24.35 A1.02 1.02 0 0 1 383.25 25.11 Q383.68 26.92 385.48 28.04 A2.02 1.96 5.5 0 1 386.26 28.96 Q387.49 31.9 390.05 34.32 Q390.76 34.98 392.04 37.67 C395.07 44 398.37 49.5 399.7 55.85 C401.4 63.97 402.25 73.6 401.4 82.58 C400.85 88.35 400.97 93.58 398.53 98.2 Z" /><path class="fl1" d=" M334.11 12.83 Q334.36 12.69 334.96 12.66 C335.02 16.03 338.13 18.13 340.44 20.2 A1.29 1.27 -72.4 0 1 340.86 21.03 L341.19 24.65 A1.18 1.16 13.2 0 0 341.77 25.56 L359.44 35.76 A0.79 0.73 -27.3 0 0 359.84 35.87 L362.67 35.87 A1.1 1.1 0 0 0 363.52 35.47 Q364.11 34.74 364.4 33.78 A1.06 1.05 -87.6 0 1 365.19 33.05 L368.28 32.39 A0.96 0.93 -73.8 0 0 368.79 32.1 Q370.26 30.49 370.75 28.54 A1.5 1.5 0 0 1 373.08 27.68 L375.16 29.16 Q375.09 29.58 374.7 29.94 Q359.92 44.08 342.87 54.87 Q339.55 56.98 335.12 59.18 A0.4 0.4 0 0 0 335.26 59.94 Q343.48 60.71 350.99 58.14 A0.3 0.3 0 0 1 351.34 58.57 Q344 71.09 332.8 80.59 L333.85 74.84 A2.19 2.17 -62.2 0 0 333.27 72.93 Q332.04 71.67 331.68 70.6 A0.89 0.88 84.3 0 0 330.98 70.02 L322.22 68.75 A0.73 0.72 -54.1 0 0 321.8 68.82 L317.19 71.11 A0.88 0.84 -57.7 0 1 316.79 71.21 L305.32 71.21 A0.9 0.9 0 0 1 304.42 70.31 L304.42 69.02 A1.07 1.07 0 0 0 304.05 68.21 C301.66 66.12 298.6 62.89 296.35 64.25 L296.26 63.49 C296.63 60.62 296.67 57.49 297.19 54.91 Q299.26 44.77 304.61 35.72 A0.51 0.51 0 0 1 305.54 35.82 L309.67 48.63 A0.39 0.39 0 0 0 310.44 48.51 C310.48 31.94 319.62 20.11 334.11 12.83 Z" /><path class="fl3" d=" M380.44 33.64 L380.02 35.01 Q380.27 33.02 379.66 31.59 Q379.25 30.63 377.79 30.13 Q376.54 29.7 375.45 29.09 L379.24 25.04 A0.42 0.41 -30.5 0 1 379.95 25.22 Q381.02 29.69 380.44 33.64 Z" /><path class="fl4" d=" M375.45 29.09 Q376.54 29.7 377.79 30.13 Q379.25 30.63 379.66 31.59 Q380.27 33.02 380.02 35.01 Q378.74 41.11 378.13 42.88 Q370.71 64.44 356.2 82.23 A0.25 0.24 -18.4 0 1 355.77 82.02 Q357.51 75.46 355.82 68.53 A0.47 0.46 -33.1 0 0 355 68.36 Q347.38 78.13 337.6 86.19 L333.99 88.69 A0.86 0.86 0 0 1 332.97 88.66 C331.43 87.48 331.28 86.72 331.93 84.48 Q332.44 82.76 331.88 81.39 L332.8 80.59 Q344 71.09 351.34 58.57 A0.3 0.3 0 0 0 350.99 58.14 Q343.48 60.71 335.26 59.94 A0.4 0.4 0 0 1 335.12 59.18 Q339.55 56.98 342.87 54.87 Q359.92 44.08 374.7 29.94 Q375.09 29.58 375.16 29.16 L375.45 29.09 Z" /><path class="fl1" d=" M380.44 33.64 L382.12 37.75 A2.94 2.92 12.8 0 0 382.68 38.63 L389.47 45.86 A2.58 2.43 13 0 1 389.93 46.55 L393.69 54.7 A2.14 2.09 -59.3 0 1 393.88 55.48 Q394.31 64.16 394.86 66.11 C396.75 72.85 398.01 76.9 397.52 82.87 Q394.08 85.41 391.77 84.96 Q388.13 84.25 387.81 75.68 A0.22 0.22 0 0 0 387.45 75.53 L387.43 75.54 A1.07 1.06 -18.1 0 0 387.07 76.24 Q386.06 86.46 376.24 86.73 C370.07 86.9 361.41 86.16 354.19 86.99 C348.19 87.67 342.37 89.6 337.6 86.19 Q347.38 78.13 355 68.36 A0.47 0.46 -33.1 0 1 355.82 68.53 Q357.51 75.46 355.77 82.02 A0.25 0.24 -18.4 0 0 356.2 82.23 Q370.71 64.44 378.13 42.88 Q378.74 41.11 380.02 35.01 L380.44 33.64 Z" /><path class="fl5" d=" M262.11 38.09 Q259.92 43.94 257.24 49.43 Q257.11 49.71 257.29 50.35 Q256.55 51.39 256.22 52.9 Q255.17 55.58 254.44 59.57 Q252.72 68.84 252 75.55 Q251.38 55.28 262.11 38.09 Z" /><path class="fl1" d=" M287.92 64.51 Q287.64 65.02 287.96 65.85 Q282.11 63.8 276.76 63.74 Q279.88 54.99 281.46 51.69 Q283.86 46.66 288.07 43.57 A0.41 0.4 75.9 0 1 288.71 43.96 C287.81 50.35 286.86 57.74 287.92 64.51 Z" /><path class="fl2" d=" M257.29 50.35 L259.99 51.28 A0.49 0.48 -67.2 0 1 260.26 51.95 Q259.24 54.04 256.22 52.9 Q256.55 51.39 257.29 50.35 Z" /><path class="fl2" d=" M275.09 61.26 L274.77 66.34 A0.37 0.37 0 0 0 275.47 66.52 L276.76 63.74 Q282.11 63.8 287.96 65.85 Q289.86 82.23 301.89 94.6 Q305.33 98.13 306.52 99.23 A0.65 0.64 -39.5 0 0 307.3 99.3 Q307.66 99.06 308.23 98.95 Q321.25 96.45 332.66 89.89 A0.25 0.25 0 0 1 333.04 90.09 L333.91 99.71 A5.55 5.5 -44.7 0 1 333.9 100.81 L333.39 105.28 A1.28 1.27 74.8 0 1 332.89 106.16 L325.93 111.35 A0.78 0.73 77.5 0 0 325.64 111.84 L325.41 113.2 A0.4 0.4 0 0 1 324.79 113.47 Q315.55 107.49 308.23 100.32 A0.12 0.12 0 0 0 308.06 100.31 L308 100.37 A0.26 0.26 0 0 0 307.97 100.73 Q315.11 109.35 322.7 117.54 Q323.64 118.56 326.08 120.61 Q326.56 122.82 324.61 123.8 A0.65 0.65 0 0 0 324.35 124.72 L324.88 125.56 A1.28 1.28 0 0 1 324.98 126.71 Q323.2 131.15 320.8 132.31 A0.46 0.45 -31.2 0 0 320.63 132.99 L321.79 134.54 A0.7 0.7 0 0 1 321.78 135.39 C320.86 136.57 317.77 140.51 318.28 142.61 A1.47 1.44 52.4 0 1 318.16 143.6 L317.91 144.08 A1.16 1.15 43.8 0 0 317.94 145.19 Q318.84 146.75 319.09 148.49 Q318.94 149.01 318.26 148.89 Q316.91 148.63 313.59 148.38 Q313.03 148.33 312.58 147.91 A1.18 1.17 66 0 0 311.75 147.59 Q308.28 147.65 305.76 145.82 Q305.68 145.27 305.21 145 Q304.8 144.76 304.24 144.81 Q303.44 144.87 303.13 144.74 A1.62 1.62 0 0 1 302.22 143.63 L301.35 139.81 A2.97 2.9 -67.9 0 0 300.97 138.88 L290.78 122.59 A0.55 0.54 -31.9 0 1 290.96 121.84 Q291.54 121.47 291.6 121.3 A0.49 0.49 0 0 0 291.12 120.63 Q289.06 120.72 288.48 118.86 A1.31 1.29 -89.7 0 0 287.66 118.02 C285.56 117.31 282.43 117.66 280.54 116.01 L278.15 114.06 A0.45 0.45 0 0 1 278.4 113.26 Q285.12 112.68 290.74 110.64 Q299.3 107.53 304.98 100.3 A0.3 0.3 0 0 0 304.6 99.85 Q288.31 108.61 269.55 106.02 Q267.28 105.7 265.25 103.26 Q260.46 97.49 257.75 91.74 L257.54 80.72 A0.6 0.6 0 0 0 256.63 80.21 L253.14 82.33 L252.47 77.52 Q252.49 76.52 254.42 76.09 A1.75 1.74 -1.8 0 0 255.76 74.67 L256.29 71.41 A1.39 1.37 -19.2 0 1 256.62 70.74 L260.45 66.5 A0.56 0.56 0 0 1 261.42 66.96 L261.37 67.26 A0.53 0.53 0 0 0 262.17 67.79 L266.21 65.26 A0.78 0.76 44.4 0 1 267.02 65.26 Q267.55 65.59 267.57 66.25 A0.48 0.48 0 0 0 268.42 66.55 Q271.18 63.31 275.09 61.26 Z" /><path class="fl3" d=" M296.26 63.49 L296.35 64.25 C296.19 76.16 300.59 87.74 306.25 98.14 A0.73 0.73 0 0 0 307.25 98.43 Q320.01 91.11 331.88 81.39 Q332.44 82.76 331.93 84.48 C331.28 86.72 331.43 87.48 332.97 88.66 A0.86 0.86 0 0 0 333.99 88.69 L337.6 86.19 C342.37 89.6 348.19 87.67 354.19 86.99 C361.41 86.16 370.07 86.9 376.24 86.73 Q386.06 86.46 387.07 76.24 A1.07 1.06 -18.1 0 1 387.43 75.54 L387.45 75.53 A0.22 0.22 0 0 1 387.81 75.68 Q388.13 84.25 391.77 84.96 Q394.08 85.41 397.52 82.87 Q397.54 86.67 397.09 90.24 Q397 90.99 397.57 91.74 A0.31 0.31 0 0 0 398.12 91.62 L398.57 89.73 L398.53 98.2 Q397.59 100.9 396.8 104.29 Q396.42 105.94 394.36 108.91 A6.42 6.22 72.7 0 0 393.56 110.49 Q392.05 114.77 389.83 117.59 C386.47 121.86 383.4 127.18 378.68 130.24 A3.33 3.22 -86.9 0 0 377.85 131.01 Q374.93 134.8 370.35 137.15 A4.54 4.53 -78.8 0 0 369.53 137.7 Q364.01 142.25 360.74 143.48 Q353.79 146.08 352.53 146.99 A1.58 1.52 16.3 0 1 352.09 147.22 Q329.53 154.38 306.72 148.64 C304.83 148.17 303.31 147.4 301.47 147.29 A3.08 3.06 57.2 0 1 300.56 147.09 Q291.18 143.52 283.24 137.26 Q283.82 137 284.11 137.2 Q292.29 142.9 302.13 146.12 A1.63 1.52 -11.5 0 1 302.75 146.5 L303.18 146.93 A1.27 1.26 65.7 0 0 304.14 147.3 Q305.2 147.24 307.06 147.7 Q320 150.98 335.06 149.8 Q343.87 148.92 347.61 147.35 Q352.34 145.36 357.51 143.61 A3.78 3.55 -68.6 0 0 358.31 143.23 Q360.3 142 362.29 141.29 A3.98 3.88 17.2 0 0 363.17 140.84 Q369.58 136.39 370.3 136.03 C371.92 135.24 373.44 133.31 375.38 131.79 A0.64 0.61 75.3 0 0 375.62 131.36 Q375.68 130.77 375.19 130.65 L385.73 119.46 A0.65 0.64 26.2 0 0 385.36 118.38 Q384.69 118.27 383.92 118.72 C375.26 123.78 362.44 119.74 354.86 115.76 A0.6 0.59 18.5 0 0 354 116.18 L352.87 123.09 A0.58 0.56 -81.3 0 1 352.23 123.57 Q338.75 121.71 326.86 114.67 A0.57 0.57 0 0 0 326.13 115.53 Q327.95 117.67 326.08 120.61 Q323.64 118.56 322.7 117.54 Q315.11 109.35 307.97 100.73 A0.26 0.26 0 0 1 308 100.37 L308.06 100.31 A0.12 0.12 0 0 1 308.23 100.32 Q315.55 107.49 324.79 113.47 A0.4 0.4 0 0 0 325.41 113.2 L325.64 111.84 A0.78 0.73 77.5 0 1 325.93 111.35 L332.89 106.16 A1.28 1.27 74.8 0 0 333.39 105.28 L333.9 100.81 A5.55 5.5 -44.7 0 0 333.91 99.71 L333.04 90.09 A0.25 0.25 0 0 0 332.66 89.89 Q321.25 96.45 308.23 98.95 Q307.66 99.06 307.3 99.3 A0.65 0.64 -39.5 0 1 306.52 99.23 Q305.33 98.13 301.89 94.6 Q289.86 82.23 287.96 65.85 Q287.64 65.02 287.92 64.51 Q288.23 65.75 289.01 65.37 Q291.97 63.92 293.37 63.85 Q295.64 63.74 296.26 63.49 Z" /><path class="fl2" d=" M332.8 80.59 L331.88 81.39 Q320.01 91.11 307.25 98.43 A0.73 0.73 0 0 1 306.25 98.14 C300.59 87.74 296.19 76.16 296.35 64.25 C298.6 62.89 301.66 66.12 304.05 68.21 A1.07 1.07 0 0 1 304.42 69.02 L304.42 70.31 A0.9 0.9 0 0 0 305.32 71.21 L316.79 71.21 A0.88 0.84 -57.7 0 0 317.19 71.11 L321.8 68.82 A0.73 0.72 -54.1 0 1 322.22 68.75 L330.98 70.02 A0.89 0.88 84.3 0 1 331.68 70.6 Q332.04 71.67 333.27 72.93 A2.19 2.17 -62.2 0 1 333.85 74.84 L332.8 80.59 Z" /><path class="fl5" d=" M252.47 77.52 L253.14 82.33 Q252.16 84.35 253.34 86.51 Q256.27 106.92 269.98 122.76 Q284.32 139.32 304.48 145.92 Q304.85 146.04 305.76 145.82 Q308.28 147.65 311.75 147.59 A1.18 1.17 66 0 1 312.58 147.91 Q313.03 148.33 313.59 148.38 Q316.91 148.63 318.26 148.89 Q318.94 149.01 319.09 148.49 L334.51 148.73 Q334.98 149.22 335.06 149.8 Q320 150.98 307.06 147.7 Q305.2 147.24 304.14 147.3 A1.27 1.26 65.7 0 1 303.18 146.93 L302.75 146.5 A1.63 1.52 -11.5 0 0 302.13 146.12 Q292.29 142.9 284.11 137.2 Q283.82 137 283.24 137.26 Q282.63 136.5 281.83 136.02 L270.85 125.75 Q268.72 123.51 266.57 121.11 Q264.32 118.61 262.77 116.11 Q255.11 103.77 252.67 90.4 Q251.8 85.59 251.78 77.46 L252.47 77.52 Z" /><path class="fl1" d=" M257.75 91.74 L257.33 91.45 L254.4 85.11 A0.53 0.53 0 0 0 253.4 85.42 Q253.49 85.93 253.34 86.51 Q252.16 84.35 253.14 82.33 L256.63 80.21 A0.6 0.6 0 0 1 257.54 80.72 L257.75 91.74 Z" /><path class="fl4" d=" M257.33 91.45 L257.37 97.32 A1.36 1.34 -64.8 0 0 257.67 98.17 C258.61 99.32 259.95 99.15 260.15 100.93 Q260.49 103.86 260.71 105.49 A1.16 1.16 0 0 0 261.88 106.49 Q264.04 106.45 266.17 107.42 A2.59 2.58 -11.4 0 1 266.79 107.83 Q271.77 112.31 275.02 115.22 Q277.62 117.55 280.54 116.01 C282.43 117.66 285.56 117.31 287.66 118.02 A1.31 1.29 -89.7 0 1 288.48 118.86 Q289.06 120.72 291.12 120.63 A0.49 0.49 0 0 1 291.6 121.3 Q291.54 121.47 290.96 121.84 A0.55 0.54 -31.9 0 0 290.78 122.59 L300.97 138.88 A2.97 2.9 -67.9 0 1 301.35 139.81 L302.22 143.63 A1.62 1.62 0 0 0 303.13 144.74 Q303.44 144.87 304.24 144.81 Q304.8 144.76 305.21 145 Q305.68 145.27 305.76 145.82 Q304.85 146.04 304.48 145.92 Q284.32 139.32 269.98 122.76 Q256.27 106.92 253.34 86.51 Q253.49 85.93 253.4 85.42 A0.53 0.53 0 0 1 254.4 85.11 L257.33 91.45 Z" /><path class="fl3" d=" M257.75 91.74 Q260.46 97.49 265.25 103.26 Q267.28 105.7 269.55 106.02 Q288.31 108.61 304.6 99.85 A0.3 0.3 0 0 1 304.98 100.3 Q299.3 107.53 290.74 110.64 Q285.12 112.68 278.4 113.26 A0.45 0.45 0 0 0 278.15 114.06 L280.54 116.01 Q277.62 117.55 275.02 115.22 Q271.77 112.31 266.79 107.83 A2.59 2.58 -11.4 0 0 266.17 107.42 Q264.04 106.45 261.88 106.49 A1.16 1.16 0 0 1 260.71 105.49 Q260.49 103.86 260.15 100.93 C259.95 99.15 258.61 99.32 257.67 98.17 A1.36 1.34 -64.8 0 1 257.37 97.32 L257.33 91.45 L257.75 91.74 Z" /><path class="fl4" d=" M375.19 130.65 Q361.42 142.83 343.31 146.88 Q338.95 147.85 334.51 148.73 L319.09 148.49 Q318.84 146.75 317.94 145.19 A1.16 1.15 43.8 0 1 317.91 144.08 L318.16 143.6 A1.47 1.44 52.4 0 0 318.28 142.61 C317.77 140.51 320.86 136.57 321.78 135.39 A0.7 0.7 0 0 0 321.79 134.54 L320.63 132.99 A0.46 0.45 -31.2 0 1 320.8 132.31 Q323.2 131.15 324.98 126.71 A1.28 1.28 0 0 0 324.88 125.56 L324.35 124.72 A0.65 0.65 0 0 1 324.61 123.8 Q326.56 122.82 326.08 120.61 Q327.95 117.67 326.13 115.53 A0.57 0.57 0 0 1 326.86 114.67 Q338.75 121.71 352.23 123.57 A0.58 0.56 -81.3 0 0 352.87 123.09 L354 116.18 A0.6 0.59 18.5 0 1 354.86 115.76 C362.44 119.74 375.26 123.78 383.92 118.72 Q384.69 118.27 385.36 118.38 A0.65 0.64 26.2 0 1 385.73 119.46 L375.19 130.65 Z" /><path class="fl1" d=" M281.83 136.02 Q280.66 135.81 280.01 135.24 Q275.74 131.53 271.7 127.56 Q271 126.87 270.85 125.75 L281.83 136.02 Z" /><path class="fl1" d=" M375.19 130.65 Q375.68 130.77 375.62 131.36 A0.64 0.61 75.3 0 1 375.38 131.79 C373.44 133.31 371.92 135.24 370.3 136.03 Q369.58 136.39 363.17 140.84 A3.98 3.88 17.2 0 1 362.29 141.29 Q360.3 142 358.31 143.23 A3.78 3.55 -68.6 0 1 357.51 143.61 Q352.34 145.36 347.61 147.35 Q343.87 148.92 335.06 149.8 Q334.98 149.22 334.51 148.73 Q338.95 147.85 343.31 146.88 Q361.42 142.83 375.19 130.65 Z" /></g></svg>