<svg class="asof-logo" viewBox="0 0 508 304" role="img" aria-labelledby="logo-optimized-title logo-optimized-desc" focusable="false"><title id="logo-optimized-title">Logo da ASOF</title><desc id="logo-optimized-desc">Logo da Associação de Oficiais de Chancelaria (ASOF)</desc><style>:root,
svg.asof-logo{--asof-st0:#548db7;--asof-st1:#b7d1e8;--asof-st2:#c9dded;--asof-st3:#93a6b5;--asof-st4:#436b8b;--asof-st5:#6797be;--asof-st6:#79a3c3;--asof-st7:#dce7f4;--asof-st8:#b8bcc1;--asof-st9:#a6b0bb;--asof-fl0:#000000;--asof-fl1:#a4c7e1;--asof-fl2:#04528d;--asof-fl3:#c9dbee;--asof-fl4:#eef3f9;--asof-fl5:#828488;--asof-fl6:#1d1d1b}@media (prefers-color-scheme:dark){:root,
svg.asof-logo:not([data-theme="light"]){--asof-fl0:#ffffff;--asof-fl6:#ffffff}}svg.asof-logo[data-theme="dark"]{--asof-fl0:#ffffff;--asof-fl6:#ffffff}svg.asof-logo[data-theme="light"]{--asof-fl0:#000000;--asof-fl6:#1d1d1b}.st0{stroke:var(--asof-st0)}.st1{stroke:var(--asof-st1)}.st2{stroke:var(--asof-st2)}.st3{stroke:var(--asof-st3)}.st4{stroke:var(--asof-st4)}.st5{stroke:var(--asof-st5)}.st6{stroke:var(--asof-st6)}.st7{stroke:var(--asof-st7)}.st8{stroke:var(--asof-st8)}.st9{stroke:var(--asof-st9)}.fl0{fill:var(--asof-fl0)}.fl1{fill:var(--asof-fl1)}.fl2{fill:var(--asof-fl2)}.fl3{fill:var(--asof-fl3)}.fl4{fill:var(--asof-fl4)}.fl5{fill:var(--asof-fl5)}.fl6{fill:var(--asof-fl6)}.grp{stroke-width:2.00;fill:none;stroke-linecap:butt}</style><g class="grp" vector-effect="non-scaling-stroke"><path class="st0" d=" M334.09 1.81 L333.5 4.54" /><path class="st1" d=" M333.5 4.54 Q333.23 4.68 332.74 4.7" /><path class="st2" d=" M332.74 4.7 Q321.67 4.65 311.32 7.98 Q303.32 10.56 297.07 15.06 Q290.22 19.99 286.1 26.58 Q280.68 35.24 278.44 43.17 Q276.04 51.65 275.09 61.26" /><path class="st0" d=" M275.09 61.26 Q271.18 63.31 268.42 66.55 A0.48 0.48 0 0 1 267.57 66.25 Q267.55 65.59 267.02 65.26 A0.78 0.76 44.4 0 0 266.21 65.26 L262.17 67.79 A0.53 0.53 0 0 1 261.37 67.26 L261.42 66.96 A0.56 0.56 0 0 0 260.45 66.5 L256.62 70.74 A1.39 1.37 -19.2 0 0 256.29 71.41 L255.76 74.67 A1.75 1.74 -1.8 0 1 254.42 76.09 Q252.49 76.52 252.47 77.52" /><path class="st3" d=" M252.47 77.52 L251.78 77.46" /><path class="st3" d=" M252 75.55 Q252.72 68.84 254.44 59.57 Q255.17 55.58 256.22 52.9" /><path class="st0" d=" M256.22 52.9 Q259.24 54.04 260.26 51.95 A0.49 0.48 -67.2 0 0 259.99 51.28 L257.29 50.35" /><path class="st3" d=" M257.29 50.35 Q257.11 49.71 257.24 49.43 Q259.92 43.94 262.11 38.09" /><path class="st4" d=" M257.29 50.35 Q256.55 51.39 256.22 52.9" /><path class="st5" d=" M287.96 65.85 Q289.86 82.23 301.89 94.6 Q305.33 98.13 306.52 99.23 A0.65 0.64 -39.5 0 0 307.3 99.3 Q307.66 99.06 308.23 98.95 Q321.25 96.45 332.66 89.89 A0.25 0.25 0 0 1 333.04 90.09 L333.91 99.71 A5.55 5.5 -44.7 0 1 333.9 100.81 L333.39 105.28 A1.28 1.27 74.8 0 1 332.89 106.16 L325.93 111.35 A0.78 0.73 77.5 0 0 325.64 111.84 L325.41 113.2 A0.4 0.4 0 0 1 324.79 113.47 Q315.55 107.49 308.23 100.32 A0.12 0.12 0 0 0 308.06 100.31 L308 100.37 A0.26 0.26 0 0 0 307.97 100.73 Q315.11 109.35 322.7 117.54 Q323.64 118.56 326.08 120.61" /><path class="st6" d=" M326.08 120.61 Q326.56 122.82 324.61 123.8 A0.65 0.65 0 0 0 324.35 124.72 L324.88 125.56 A1.28 1.28 0 0 1 324.98 126.71 Q323.2 131.15 320.8 132.31 A0.46 0.45 -31.2 0 0 320.63 132.99 L321.79 134.54 A0.7 0.7 0 0 1 321.78 135.39 C320.86 136.57 317.77 140.51 318.28 142.61 A1.47 1.44 52.4 0 1 318.16 143.6 L317.91 144.08 A1.16 1.15 43.8 0 0 317.94 145.19 Q318.84 146.75 319.09 148.49" /><path class="st4" d=" M319.09 148.49 Q318.94 149.01 318.26 148.89 Q316.91 148.63 313.59 148.38 Q313.03 148.33 312.58 147.91 A1.18 1.17 66 0 0 311.75 147.59 Q308.28 147.65 305.76 145.82" /><path class="st6" d=" M305.76 145.82 Q305.68 145.27 305.21 145 Q304.8 144.76 304.24 144.81 Q303.44 144.87 303.13 144.74 A1.62 1.62 0 0 1 302.22 143.63 L301.35 139.81 A2.97 2.9 -67.9 0 0 300.97 138.88 L290.78 122.59 A0.55 0.54 -31.9 0 1 290.96 121.84 Q291.54 121.47 291.6 121.3 A0.49 0.49 0 0 0 291.12 120.63 Q289.06 120.72 288.48 118.86 A1.31 1.29 -89.7 0 0 287.66 118.02 C285.56 117.31 282.43 117.66 280.54 116.01" /><path class="st5" d=" M280.54 116.01 L278.15 114.06 A0.45 0.45 0 0 1 278.4 113.26 Q285.12 112.68 290.74 110.64 Q299.3 107.53 304.98 100.3 A0.3 0.3 0 0 0 304.6 99.85 Q288.31 108.61 269.55 106.02 Q267.28 105.7 265.25 103.26 Q260.46 97.49 257.75 91.74" /><path class="st0" d=" M257.75 91.74 L257.54 80.72 A0.6 0.6 0 0 0 256.63 80.21 L253.14 82.33" /><path class="st4" d=" M253.14 82.33 L252.47 77.52" /><path class="st5" d=" M351.61 5.87 Q344.5 8.31 337.65 11.13 Q336.09 11.77 334.96 12.66" /><path class="st1" d=" M334.96 12.66 Q334.36 12.69 334.11 12.83" /><path class="st7" d=" M334.11 12.83 L332.74 4.7" /><path class="st2" d=" M334.11 12.83 C319.62 20.11 310.48 31.94 310.44 48.51 A0.39 0.39 0 0 1 309.67 48.63 L305.54 35.82 A0.51 0.51 0 0 0 304.61 35.72 Q299.26 44.77 297.19 54.91 C296.67 57.49 296.63 60.62 296.26 63.49" /><path class="st7" d=" M296.26 63.49 Q295.64 63.74 293.37 63.85 Q291.97 63.92 289.01 65.37 Q288.23 65.75 287.92 64.51" /><path class="st2" d=" M287.92 64.51 C286.86 57.74 287.81 50.35 288.71 43.96 A0.41 0.4 75.9 0 0 288.07 43.57 Q283.86 46.66 281.46 51.69 Q279.88 54.99 276.76 63.74" /><path class="st6" d=" M276.76 63.74 L275.47 66.52 A0.37 0.37 0 0 1 274.77 66.34 L275.09 61.26" /><path class="st3" d=" M253.14 82.33 Q252.16 84.35 253.34 86.51" /><path class="st8" d=" M253.34 86.51 Q256.27 106.92 269.98 122.76 Q284.32 139.32 304.48 145.92 Q304.85 146.04 305.76 145.82" /><path class="st8" d=" M319.09 148.49 L334.51 148.73" /><path class="st3" d=" M334.51 148.73 Q334.98 149.22 335.06 149.8" /><path class="st3" d=" M281.83 136.02 L270.85 125.75" /><path class="st5" d=" M349.49 4.84 Q349.33 5.5 348.75 5.46 Q339.79 4.69 333.5 4.54" /><path class="st2" d=" M375.19 130.65 Q361.42 142.83 343.31 146.88 Q338.95 147.85 334.51 148.73" /><path class="st5" d=" M296.35 64.25 C296.19 76.16 300.59 87.74 306.25 98.14 A0.73 0.73 0 0 0 307.25 98.43 Q320.01 91.11 331.88 81.39" /><path class="st9" d=" M283.24 137.26 Q283.82 137 284.11 137.2 Q292.29 142.9 302.13 146.12 A1.63 1.52 -11.5 0 1 302.75 146.5 L303.18 146.93 A1.27 1.26 65.7 0 0 304.14 147.3 Q305.2 147.24 307.06 147.7 Q320 150.98 335.06 149.8" /><path class="st1" d=" M335.06 149.8 Q343.87 148.92 347.61 147.35 Q352.34 145.36 357.51 143.61 A3.78 3.55 -68.6 0 0 358.31 143.23 Q360.3 142 362.29 141.29 A3.98 3.88 17.2 0 0 363.17 140.84 Q369.58 136.39 370.3 136.03 C371.92 135.24 373.44 133.31 375.38 131.79 A0.64 0.61 75.3 0 0 375.62 131.36 Q375.68 130.77 375.19 130.65" /><path class="st7" d=" M375.19 130.65 L385.73 119.46 A0.65 0.64 26.2 0 0 385.36 118.38 Q384.69 118.27 383.92 118.72 C375.26 123.78 362.44 119.74 354.86 115.76 A0.6 0.59 18.5 0 0 354 116.18 L352.87 123.09 A0.58 0.56 -81.3 0 1 352.23 123.57 Q338.75 121.71 326.86 114.67 A0.57 0.57 0 0 0 326.13 115.53 Q327.95 117.67 326.08 120.61" /><path class="st1" d=" M287.92 64.51 Q287.64 65.02 287.96 65.85" /><path class="st0" d=" M287.96 65.85 Q282.11 63.8 276.76 63.74" /><path class="st1" d=" M257.75 91.74 L257.33 91.45" /><path class="st2" d=" M257.33 91.45 L254.4 85.11 A0.53 0.53 0 0 0 253.4 85.42 Q253.49 85.93 253.34 86.51" /><path class="st7" d=" M257.33 91.45 L257.37 97.32 A1.36 1.34 -64.8 0 0 257.67 98.17 C258.61 99.32 259.95 99.15 260.15 100.93 Q260.49 103.86 260.71 105.49 A1.16 1.16 0 0 0 261.88 106.49 Q264.04 106.45 266.17 107.42 A2.59 2.58 -11.4 0 1 266.79 107.83 Q271.77 112.31 275.02 115.22 Q277.62 117.55 280.54 116.01" /><path class="st2" d=" M375.16 29.16 Q375.09 29.58 374.7 29.94 Q359.92 44.08 342.87 54.87 Q339.55 56.98 335.12 59.18 A0.4 0.4 0 0 0 335.26 59.94 Q343.48 60.71 350.99 58.14 A0.3 0.3 0 0 1 351.34 58.57 Q344 71.09 332.8 80.59" /><path class="st0" d=" M332.8 80.59 L333.85 74.84 A2.19 2.17 -62.2 0 0 333.27 72.93 Q332.04 71.67 331.68 70.6 A0.89 0.88 84.3 0 0 330.98 70.02 L322.22 68.75 A0.73 0.72 -54.1 0 0 321.8 68.82 L317.19 71.11 A0.88 0.84 -57.7 0 1 316.79 71.21 L305.32 71.21 A0.9 0.9 0 0 1 304.42 70.31 L304.42 69.02 A1.07 1.07 0 0 0 304.05 68.21 C301.66 66.12 298.6 62.89 296.35 64.25" /><path class="st1" d=" M296.35 64.25 L296.26 63.49" /><path class="st6" d=" M351.72 5.77 Q359.22 8.58 361.24 10 Q363 11.23 364.17 11.88 Q366.63 13.24 366.66 13.26 Q386.24 26.37 395.04 47.53 Q398.81 56.6 399.52 68.36 Q400.16 79.1 398.57 89.73" /><path class="st5" d=" M398.57 89.73 L398.12 91.62 A0.31 0.31 0 0 1 397.57 91.74 Q397 90.99 397.09 90.24 Q397.54 86.67 397.52 82.87" /><path class="st0" d=" M397.52 82.87 C398.01 76.9 396.75 72.85 394.86 66.11 Q394.31 64.16 393.88 55.48 A2.14 2.09 -59.3 0 0 393.69 54.7 L389.93 46.55 A2.58 2.43 13 0 0 389.47 45.86 L382.68 38.63 A2.94 2.92 12.8 0 1 382.12 37.75 L380.44 33.64" /><path class="st5" d=" M380.44 33.64 Q381.02 29.69 379.95 25.22 A0.42 0.41 -30.5 0 0 379.24 25.04 L375.45 29.09" /><path class="st6" d=" M375.45 29.09 L375.16 29.16" /><path class="st0" d=" M375.16 29.16 L373.08 27.68 A1.5 1.5 0 0 0 370.75 28.54 Q370.26 30.49 368.79 32.1 A0.96 0.93 -73.8 0 1 368.28 32.39 L365.19 33.05 A1.06 1.05 -87.6 0 0 364.4 33.78 Q364.11 34.74 363.52 35.47 A1.1 1.1 0 0 1 362.67 35.87 L359.84 35.87 A0.79 0.73 -27.3 0 1 359.44 35.76 L341.77 25.56 A1.18 1.16 13.2 0 1 341.19 24.65 L340.86 21.03 A1.29 1.27 -72.4 0 0 340.44 20.2 C338.13 18.13 335.02 16.03 334.96 12.66" /><path class="st1" d=" M397.52 82.87 Q394.08 85.41 391.77 84.96 Q388.13 84.25 387.81 75.68 A0.22 0.22 0 0 0 387.45 75.53 L387.43 75.54 A1.07 1.06 -18.1 0 0 387.07 76.24 Q386.06 86.46 376.24 86.73 C370.07 86.9 361.41 86.16 354.19 86.99 C348.19 87.67 342.37 89.6 337.6 86.19" /><path class="st7" d=" M398.53 98.2 L398.57 89.73" /><path class="st2" d=" M380.02 35.01 Q378.74 41.11 378.13 42.88 Q370.71 64.44 356.2 82.23 A0.25 0.24 -18.4 0 1 355.77 82.02 Q357.51 75.46 355.82 68.53 A0.47 0.46 -33.1 0 0 355 68.36 Q347.38 78.13 337.6 86.19" /><path class="st7" d=" M337.6 86.19 L333.99 88.69 A0.86 0.86 0 0 1 332.97 88.66 C331.43 87.48 331.28 86.72 331.93 84.48 Q332.44 82.76 331.88 81.39" /><path class="st6" d=" M331.88 81.39 L332.8 80.59" /><path class="st1" d=" M380.44 33.64 L380.02 35.01" /><path class="st7" d=" M380.02 35.01 Q380.27 33.02 379.66 31.59 Q379.25 30.63 377.79 30.13 Q376.54 29.7 375.45 29.09" /></g><g><path class="fl0" d=" M66.51 0.81 Q66.69 0.81 66.75 0.94 Q99.34 75.44 131.92 149.85 A0.27 0.26 -11.5 0 1 131.67 150.22 L113.95 150.22 A0.9 0.9 0 0 1 113.12 149.67 L94.83 106.49 A0.45 0.44 -10.5 0 0 94.43 106.21 Q92.85 106.16 66.57 106.18 Q40.29 106.19 38.72 106.25 A0.45 0.44 10.4 0 0 38.32 106.52 L20.07 149.72 A0.9 0.9 0 0 1 19.24 150.27 L1.52 150.29 A0.27 0.26 11.4 0 1 1.27 149.92 Q33.77 75.48 66.28 0.94 Q66.34 0.81 66.51 0.81 ZM43.88 90.89 A0.31 0.31 0 0 0 44.16 91.32 L88.88 91.32 A0.31 0.31 0 0 0 89.16 90.89 L66.8 39.23 A0.31 0.31 0 0 0 66.24 39.23 L43.88 90.89 Z" /><path class="fl0" d=" M152.85 109.95 A0.89 0.88 -20.1 0 1 154.11 110.53 C157.45 124.58 166.37 135.87 182 135.83 C198.26 135.79 210.91 125.68 210.46 108.49 C210.13 95.87 201.87 87.17 190.92 82.1 Q184.98 79.36 169.97 73.03 C152.17 65.53 141.17 51.73 143.21 31.45 Q144.24 21.24 151.31 13.53 C160.74 3.25 173.53 -0.05 187.49 0.92 C201.67 1.9 213.14 8.81 219.66 21.57 A0.97 0.97 0 0 1 219.31 22.84 L206.25 31.01 A0.47 0.47 0 0 1 205.59 30.83 Q201.81 23.92 196.03 19.56 C189.55 14.68 180.16 13.47 172.8 16.6 Q160.71 21.74 160.19 34.98 C159.76 45.68 167.41 53.1 176.57 57.21 Q194.12 65.09 203.19 69.07 Q205.09 69.91 208.74 72.24 Q225.7 83.07 227.48 101.98 C228.4 111.77 226.68 122.35 221.43 130.64 C212.08 145.4 195.81 151.24 178.71 150.25 C158.41 149.07 143.69 137.73 138.53 117.77 A0.79 0.78 69.8 0 1 138.94 116.88 L152.85 109.95 Z" /><path class="fl0" d=" M426 0.82 L501.31 0.82 A0.37 0.37 0 0 1 501.68 1.19 L501.68 16.06 A0.37 0.37 0 0 1 501.31 16.43 L443.24 16.43 A0.37 0.37 0 0 0 442.87 16.8 L442.87 57.38 A0.37 0.37 0 0 0 443.24 57.75 L501.31 57.75 A0.37 0.37 0 0 1 501.68 58.12 L501.68 73.31 A0.37 0.37 0 0 1 501.31 73.68 L443.24 73.68 A0.37 0.37 0 0 0 442.87 74.05 L442.87 149.69 A0.37 0.37 0 0 1 442.51 150.06 L426.01 150.46 A0.37 0.37 0 0 1 425.63 150.09 L425.63 1.19 A0.37 0.37 0 0 1 426 0.82 Z" /></g><g><path class="fl1" d=" M334.09 1.81 L333.5 4.54 Q333.23 4.68 332.74 4.7 Q321.67 4.65 311.32 7.98 Q303.32 10.56 297.07 15.06 Q290.22 19.99 286.1 26.58 Q280.68 35.24 278.44 43.17 Q276.04 51.65 275.09 61.26 Q271.18 63.31 268.42 66.55 A0.48 0.48 0 0 1 267.57 66.25 Q267.55 65.59 267.02 65.26 A0.78 0.76 44.4 0 0 266.21 65.26 L262.17 67.79 A0.53 0.53 0 0 1 261.37 67.26 L261.42 66.96 A0.56 0.56 0 0 0 260.45 66.5 L256.62 70.74 A1.39 1.37 -19.2 0 0 256.29 71.41 L255.76 74.67 A1.75 1.74 -1.8 0 1 254.42 76.09 Q252.49 76.52 252.47 77.52 L251.78 77.46 Q251.71 76.18 252 75.55 Q252.72 68.84 254.44 59.57 Q255.17 55.58 256.22 52.9 Q259.24 54.04 260.26 51.95 A0.49 0.48 -67.2 0 0 259.99 51.28 L257.29 50.35 Q257.11 49.71 257.24 49.43 Q259.92 43.94 262.11 38.09 C267.52 27.53 276.86 19 287.07 12.55 Q299.46 4.72 314.26 2.32 Q319.91 1.41 327.61 1.17 C329.71 1.1 331.88 1.68 334.09 1.81 Z" /><path class="fl2" d=" M349.49 4.84 Q349.33 5.5 348.75 5.46 Q339.79 4.69 333.5 4.54 L334.09 1.81 C339.7 2.19 344.33 3.64 349.49 4.84 Z" /><path class="fl3" d=" M349.49 4.84 Q350.38 4.91 351.61 5.87 Q344.5 8.31 337.65 11.13 Q336.09 11.77 334.96 12.66 Q334.36 12.69 334.11 12.83 L332.74 4.7 Q333.23 4.68 333.5 4.54 Q339.79 4.69 348.75 5.46 Q349.33 5.5 349.49 4.84 Z" /><path class="fl4" d=" M332.74 4.7 L334.11 12.83 C319.62 20.11 310.48 31.94 310.44 48.51 A0.39 0.39 0 0 1 309.67 48.63 L305.54 35.82 A0.51 0.51 0 0 0 304.61 35.72 Q299.26 44.77 297.19 54.91 C296.67 57.49 296.63 60.62 296.26 63.49 Q295.64 63.74 293.37 63.85 Q291.97 63.92 289.01 65.37 Q288.23 65.75 287.92 64.51 C286.86 57.74 287.81 50.35 288.71 43.96 A0.41 0.4 75.9 0 0 288.07 43.57 Q283.86 46.66 281.46 51.69 Q279.88 54.99 276.76 63.74 L275.47 66.52 A0.37 0.37 0 0 1 274.77 66.34 L275.09 61.26 Q276.04 51.65 278.44 43.17 Q280.68 35.24 286.1 26.58 Q290.22 19.99 297.07 15.06 Q303.32 10.56 311.32 7.98 Q321.67 4.65 332.74 4.7 Z" /><path class="fl2" d=" M351.61 5.87 Q351.67 5.82 351.72 5.77 Q359.22 8.58 361.24 10 Q363 11.23 364.17 11.88 Q366.63 13.24 366.66 13.26 Q386.24 26.37 395.04 47.53 Q398.81 56.6 399.52 68.36 Q400.16 79.1 398.57 89.73 L398.12 91.62 A0.31 0.31 0 0 1 397.57 91.74 Q397 90.99 397.09 90.24 Q397.54 86.67 397.52 82.87 C398.01 76.9 396.75 72.85 394.86 66.11 Q394.31 64.16 393.88 55.48 A2.14 2.09 -59.3 0 0 393.69 54.7 L389.93 46.55 A2.58 2.43 13 0 0 389.47 45.86 L382.68 38.63 A2.94 2.92 12.8 0 1 382.12 37.75 L380.44 33.64 Q381.02 29.69 379.95 25.22 A0.42 0.41 -30.5 0 0 379.24 25.04 L375.45 29.09 L375.16 29.16 L373.08 27.68 A1.5 1.5 0 0 0 370.75 28.54 Q370.26 30.49 368.79 32.1 A0.96 0.93 -73.8 0 1 368.28 32.39 L365.19 33.05 A1.06 1.05 -87.6 0 0 364.4 33.78 Q364.11 34.74 363.52 35.47 A1.1 1.1 0 0 1 362.67 35.87 L359.84 35.87 A0.79 0.73 -27.3 0 1 359.44 35.76 L341.77 25.56 A1.18 1.16 13.2 0 1 341.19 24.65 L340.86 21.03 A1.29 1.27 -72.4 0 0 340.44 20.2 C338.13 18.13 335.02 16.03 334.96 12.66 Q336.09 11.77 337.65 11.13 Q344.5 8.31 351.61 5.87 Z" /><path class="fl4" d=" M398.53 98.2 L398.57 89.73 Q400.16 79.1 399.52 68.36 Q398.81 56.6 395.04 47.53 Q386.24 26.37 366.66 13.26 Q366.63 13.24 364.17 11.88 Q363 11.23 361.24 10 Q359.22 8.58 351.72 5.77 L356.57 6.5 A0.96 0.96 0 0 1 357.32 7.06 Q357.75 7.99 359 8.03 C360.71 8.09 361.42 10.03 363.49 10.05 A1.13 1.12 72.8 0 1 364.39 10.53 Q365.14 11.57 367.04 12 A1.34 1.31 -11.4 0 1 367.81 12.5 Q369.67 14.98 372.77 15.79 A0.75 0.74 4.1 0 1 373.32 16.42 Q373.43 17.34 374.52 17.33 A0.63 0.62 -23 0 1 374.95 17.5 L381.52 24.08 A0.64 0.64 0 0 0 381.88 24.26 L382.43 24.35 A1.02 1.02 0 0 1 383.25 25.11 Q383.68 26.92 385.48 28.04 A2.02 1.96 5.5 0 1 386.26 28.96 Q387.49 31.9 390.05 34.32 Q390.76 34.98 392.04 37.67 C395.07 44 398.37 49.5 399.7 55.85 C401.4 63.97 402.25 73.6 401.4 82.58 C400.85 88.35 400.97 93.58 398.53 98.2 Z" /><path class="fl1" d=" M334.11 12.83 Q334.36 12.69 334.96 12.66 C335.02 16.03 338.13 18.13 340.44 20.2 A1.29 1.27 -72.4 0 1 340.86 21.03 L341.19 24.65 A1.18 1.16 13.2 0 0 341.77 25.56 L359.44 35.76 A0.79 0.73 -27.3 0 0 359.84 35.87 L362.67 35.87 A1.1 1.1 0 0 0 363.52 35.47 Q364.11 34.74 364.4 33.78 A1.06 1.05 -87.6 0 1 365.19 33.05 L368.28 32.39 A0.96 0.93 -73.8 0 0 368.79 32.1 Q370.26 30.49 370.75 28.54 A1.5 1.5 0 0 1 373.08 27.68 L375.16 29.16 Q375.09 29.58 374.7 29.94 Q359.92 44.08 342.87 54.87 Q339.55 56.98 335.12 59.18 A0.4 0.4 0 0 0 335.26 59.94 Q343.48 60.71 350.99 58.14 A0.3 0.3 0 0 1 351.34 58.57 Q344 71.09 332.8 80.59 L333.85 74.84 A2.19 2.17 -62.2 0 0 333.27 72.93 Q332.04 71.67 331.68 70.6 A0.89 0.88 84.3 0 0 330.98 70.02 L322.22 68.75 A0.73 0.72 -54.1 0 0 321.8 68.82 L317.19 71.11 A0.88 0.84 -57.7 0 1 316.79 71.21 L305.32 71.21 A0.9 0.9 0 0 1 304.42 70.31 L304.42 69.02 A1.07 1.07 0 0 0 304.05 68.21 C301.66 66.12 298.6 62.89 296.35 64.25 L296.26 63.49 C296.63 60.62 296.67 57.49 297.19 54.91 Q299.26 44.77 304.61 35.72 A0.51 0.51 0 0 1 305.54 35.82 L309.67 48.63 A0.39 0.39 0 0 0 310.44 48.51 C310.48 31.94 319.62 20.11 334.11 12.83 Z" /><path class="fl3" d=" M380.44 33.64 L380.02 35.01 Q380.27 33.02 379.66 31.59 Q379.25 30.63 377.79 30.13 Q376.54 29.7 375.45 29.09 L379.24 25.04 A0.42 0.41 -30.5 0 1 379.95 25.22 Q381.02 29.69 380.44 33.64 Z" /><path class="fl4" d=" M375.45 29.09 Q376.54 29.7 377.79 30.13 Q379.25 30.63 379.66 31.59 Q380.27 33.02 380.02 35.01 Q378.74 41.11 378.13 42.88 Q370.71 64.44 356.2 82.23 A0.25 0.24 -18.4 0 1 355.77 82.02 Q357.51 75.46 355.82 68.53 A0.47 0.46 -33.1 0 0 355 68.36 Q347.38 78.13 337.6 86.19 L333.99 88.69 A0.86 0.86 0 0 1 332.97 88.66 C331.43 87.48 331.28 86.72 331.93 84.48 Q332.44 82.76 331.88 81.39 L332.8 80.59 Q344 71.09 351.34 58.57 A0.3 0.3 0 0 0 350.99 58.14 Q343.48 60.71 335.26 59.94 A0.4 0.4 0 0 1 335.12 59.18 Q339.55 56.98 342.87 54.87 Q359.92 44.08 374.7 29.94 Q375.09 29.58 375.16 29.16 L375.45 29.09 Z" /><path class="fl1" d=" M380.44 33.64 L382.12 37.75 A2.94 2.92 12.8 0 0 382.68 38.63 L389.47 45.86 A2.58 2.43 13 0 1 389.93 46.55 L393.69 54.7 A2.14 2.09 -59.3 0 1 393.88 55.48 Q394.31 64.16 394.86 66.11 C396.75 72.85 398.01 76.9 397.52 82.87 Q394.08 85.41 391.77 84.96 Q388.13 84.25 387.81 75.68 A0.22 0.22 0 0 0 387.45 75.53 L387.43 75.54 A1.07 1.06 -18.1 0 0 387.07 76.24 Q386.06 86.46 376.24 86.73 C370.07 86.9 361.41 86.16 354.19 86.99 C348.19 87.67 342.37 89.6 337.6 86.19 Q347.38 78.13 355 68.36 A0.47 0.46 -33.1 0 1 355.82 68.53 Q357.51 75.46 355.77 82.02 A0.25 0.24 -18.4 0 0 356.2 82.23 Q370.71 64.44 378.13 42.88 Q378.74 41.11 380.02 35.01 L380.44 33.64 Z" /><path class="fl5" d=" M262.11 38.09 Q259.92 43.94 257.24 49.43 Q257.11 49.71 257.29 50.35 Q256.55 51.39 256.22 52.9 Q255.17 55.58 254.44 59.57 Q252.72 68.84 252 75.55 Q251.38 55.28 262.11 38.09 Z" /><path class="fl1" d=" M287.92 64.51 Q287.64 65.02 287.96 65.85 Q282.11 63.8 276.76 63.74 Q279.88 54.99 281.46 51.69 Q283.86 46.66 288.07 43.57 A0.41 0.4 75.9 0 1 288.71 43.96 C287.81 50.35 286.86 57.74 287.92 64.51 Z" /><path class="fl2" d=" M257.29 50.35 L259.99 51.28 A0.49 0.48 -67.2 0 1 260.26 51.95 Q259.24 54.04 256.22 52.9 Q256.55 51.39 257.29 50.35 Z" /><path class="fl2" d=" M275.09 61.26 L274.77 66.34 A0.37 0.37 0 0 0 275.47 66.52 L276.76 63.74 Q282.11 63.8 287.96 65.85 Q289.86 82.23 301.89 94.6 Q305.33 98.13 306.52 99.23 A0.65 0.64 -39.5 0 0 307.3 99.3 Q307.66 99.06 308.23 98.95 Q321.25 96.45 332.66 89.89 A0.25 0.25 0 0 1 333.04 90.09 L333.91 99.71 A5.55 5.5 -44.7 0 1 333.9 100.81 L333.39 105.28 A1.28 1.27 74.8 0 1 332.89 106.16 L325.93 111.35 A0.78 0.73 77.5 0 0 325.64 111.84 L325.41 113.2 A0.4 0.4 0 0 1 324.79 113.47 Q315.55 107.49 308.23 100.32 A0.12 0.12 0 0 0 308.06 100.31 L308 100.37 A0.26 0.26 0 0 0 307.97 100.73 Q315.11 109.35 322.7 117.54 Q323.64 118.56 326.08 120.61 Q326.56 122.82 324.61 123.8 A0.65 0.65 0 0 0 324.35 124.72 L324.88 125.56 A1.28 1.28 0 0 1 324.98 126.71 Q323.2 131.15 320.8 132.31 A0.46 0.45 -31.2 0 0 320.63 132.99 L321.79 134.54 A0.7 0.7 0 0 1 321.78 135.39 C320.86 136.57 317.77 140.51 318.28 142.61 A1.47 1.44 52.4 0 1 318.16 143.6 L317.91 144.08 A1.16 1.15 43.8 0 0 317.94 145.19 Q318.84 146.75 319.09 148.49 Q318.94 149.01 318.26 148.89 Q316.91 148.63 313.59 148.38 Q313.03 148.33 312.58 147.91 A1.18 1.17 66 0 0 311.75 147.59 Q308.28 147.65 305.76 145.82 Q305.68 145.27 305.21 145 Q304.8 144.76 304.24 144.81 Q303.44 144.87 303.13 144.74 A1.62 1.62 0 0 1 302.22 143.63 L301.35 139.81 A2.97 2.9 -67.9 0 0 300.97 138.88 L290.78 122.59 A0.55 0.54 -31.9 0 1 290.96 121.84 Q291.54 121.47 291.6 121.3 A0.49 0.49 0 0 0 291.12 120.63 Q289.06 120.72 288.48 118.86 A1.31 1.29 -89.7 0 0 287.66 118.02 C285.56 117.31 282.43 117.66 280.54 116.01 L278.15 114.06 A0.45 0.45 0 0 1 278.4 113.26 Q285.12 112.68 290.74 110.64 Q299.3 107.53 304.98 100.3 A0.3 0.3 0 0 0 304.6 99.85 Q288.31 108.61 269.55 106.02 Q267.28 105.7 265.25 103.26 Q260.46 97.49 257.75 91.74 L257.54 80.72 A0.6 0.6 0 0 0 256.63 80.21 L253.14 82.33 L252.47 77.52 Q252.49 76.52 254.42 76.09 A1.75 1.74 -1.8 0 0 255.76 74.67 L256.29 71.41 A1.39 1.37 -19.2 0 1 256.62 70.74 L260.45 66.5 A0.56 0.56 0 0 1 261.42 66.96 L261.37 67.26 A0.53 0.53 0 0 0 262.17 67.79 L266.21 65.26 A0.78 0.76 44.4 0 1 267.02 65.26 Q267.55 65.59 267.57 66.25 A0.48 0.48 0 0 0 268.42 66.55 Q271.18 63.31 275.09 61.26 Z" /><path class="fl3" d=" M296.26 63.49 L296.35 64.25 C296.19 76.16 300.59 87.74 306.25 98.14 A0.73 0.73 0 0 0 307.25 98.43 Q320.01 91.11 331.88 81.39 Q332.44 82.76 331.93 84.48 C331.28 86.72 331.43 87.48 332.97 88.66 A0.86 0.86 0 0 0 333.99 88.69 L337.6 86.19 C342.37 89.6 348.19 87.67 354.19 86.99 C361.41 86.16 370.07 86.9 376.24 86.73 Q386.06 86.46 387.07 76.24 A1.07 1.06 -18.1 0 1 387.43 75.54 L387.45 75.53 A0.22 0.22 0 0 1 387.81 75.68 Q388.13 84.25 391.77 84.96 Q394.08 85.41 397.52 82.87 Q397.54 86.67 397.09 90.24 Q397 90.99 397.57 91.74 A0.31 0.31 0 0 0 398.12 91.62 L398.57 89.73 L398.53 98.2 Q397.59 100.9 396.8 104.29 Q396.42 105.94 394.36 108.91 A6.42 6.22 72.7 0 0 393.56 110.49 Q392.05 114.77 389.83 117.59 C386.47 121.86 383.4 127.18 378.68 130.24 A3.33 3.22 -86.9 0 0 377.85 131.01 Q374.93 134.8 370.35 137.15 A4.54 4.53 -78.8 0 0 369.53 137.7 Q364.01 142.25 360.74 143.48 Q353.79 146.08 352.53 146.99 A1.58 1.52 16.3 0 1 352.09 147.22 Q329.53 154.38 306.72 148.64 C304.83 148.17 303.31 147.4 301.47 147.29 A3.08 3.06 57.2 0 1 300.56 147.09 Q291.18 143.52 283.24 137.26 Q283.82 137 284.11 137.2 Q292.29 142.9 302.13 146.12 A1.63 1.52 -11.5 0 1 302.75 146.5 L303.18 146.93 A1.27 1.26 65.7 0 0 304.14 147.3 Q305.2 147.24 307.06 147.7 Q320 150.98 335.06 149.8 Q343.87 148.92 347.61 147.35 Q352.34 145.36 357.51 143.61 A3.78 3.55 -68.6 0 0 358.31 143.23 Q360.3 142 362.29 141.29 A3.98 3.88 17.2 0 0 363.17 140.84 Q369.58 136.39 370.3 136.03 C371.92 135.24 373.44 133.31 375.38 131.79 A0.64 0.61 75.3 0 0 375.62 131.36 Q375.68 130.77 375.19 130.65 L385.73 119.46 A0.65 0.64 26.2 0 0 385.36 118.38 Q384.69 118.27 383.92 118.72 C375.26 123.78 362.44 119.74 354.86 115.76 A0.6 0.59 18.5 0 0 354 116.18 L352.87 123.09 A0.58 0.56 -81.3 0 1 352.23 123.57 Q338.75 121.71 326.86 114.67 A0.57 0.57 0 0 0 326.13 115.53 Q327.95 117.67 326.08 120.61 Q323.64 118.56 322.7 117.54 Q315.11 109.35 307.97 100.73 A0.26 0.26 0 0 1 308 100.37 L308.06 100.31 A0.12 0.12 0 0 1 308.23 100.32 Q315.55 107.49 324.79 113.47 A0.4 0.4 0 0 0 325.41 113.2 L325.64 111.84 A0.78 0.73 77.5 0 1 325.93 111.35 L332.89 106.16 A1.28 1.27 74.8 0 0 333.39 105.28 L333.9 100.81 A5.55 5.5 -44.7 0 0 333.91 99.71 L333.04 90.09 A0.25 0.25 0 0 0 332.66 89.89 Q321.25 96.45 308.23 98.95 Q307.66 99.06 307.3 99.3 A0.65 0.64 -39.5 0 1 306.52 99.23 Q305.33 98.13 301.89 94.6 Q289.86 82.23 287.96 65.85 Q287.64 65.02 287.92 64.51 Q288.23 65.75 289.01 65.37 Q291.97 63.92 293.37 63.85 Q295.64 63.74 296.26 63.49 Z" /><path class="fl2" d=" M332.8 80.59 L331.88 81.39 Q320.01 91.11 307.25 98.43 A0.73 0.73 0 0 1 306.25 98.14 C300.59 87.74 296.19 76.16 296.35 64.25 C298.6 62.89 301.66 66.12 304.05 68.21 A1.07 1.07 0 0 1 304.42 69.02 L304.42 70.31 A0.9 0.9 0 0 0 305.32 71.21 L316.79 71.21 A0.88 0.84 -57.7 0 0 317.19 71.11 L321.8 68.82 A0.73 0.72 -54.1 0 1 322.22 68.75 L330.98 70.02 A0.89 0.88 84.3 0 1 331.68 70.6 Q332.04 71.67 333.27 72.93 A2.19 2.17 -62.2 0 1 333.85 74.84 L332.8 80.59 Z" /><path class="fl5" d=" M252.47 77.52 L253.14 82.33 Q252.16 84.35 253.34 86.51 Q256.27 106.92 269.98 122.76 Q284.32 139.32 304.48 145.92 Q304.85 146.04 305.76 145.82 Q308.28 147.65 311.75 147.59 A1.18 1.17 66 0 1 312.58 147.91 Q313.03 148.33 313.59 148.38 Q316.91 148.63 318.26 148.89 Q318.94 149.01 319.09 148.49 L334.51 148.73 Q334.98 149.22 335.06 149.8 Q320 150.98 307.06 147.7 Q305.2 147.24 304.14 147.3 A1.27 1.26 65.7 0 1 303.18 146.93 L302.75 146.5 A1.63 1.52 -11.5 0 0 302.13 146.12 Q292.29 142.9 284.11 137.2 Q283.82 137 283.24 137.26 Q282.63 136.5 281.83 136.02 L270.85 125.75 Q268.72 123.51 266.57 121.11 Q264.32 118.61 262.77 116.11 Q255.11 103.77 252.67 90.4 Q251.8 85.59 251.78 77.46 L252.47 77.52 Z" /><path class="fl1" d=" M257.75 91.74 L257.33 91.45 L254.4 85.11 A0.53 0.53 0 0 0 253.4 85.42 Q253.49 85.93 253.34 86.51 Q252.16 84.35 253.14 82.33 L256.63 80.21 A0.6 0.6 0 0 1 257.54 80.72 L257.75 91.74 Z" /><path class="fl4" d=" M257.33 91.45 L257.37 97.32 A1.36 1.34 -64.8 0 0 257.67 98.17 C258.61 99.32 259.95 99.15 260.15 100.93 Q260.49 103.86 260.71 105.49 A1.16 1.16 0 0 0 261.88 106.49 Q264.04 106.45 266.17 107.42 A2.59 2.58 -11.4 0 1 266.79 107.83 Q271.77 112.31 275.02 115.22 Q277.62 117.55 280.54 116.01 C282.43 117.66 285.56 117.31 287.66 118.02 A1.31 1.29 -89.7 0 1 288.48 118.86 Q289.06 120.72 291.12 120.63 A0.49 0.49 0 0 1 291.6 121.3 Q291.54 121.47 290.96 121.84 A0.55 0.54 -31.9 0 0 290.78 122.59 L300.97 138.88 A2.97 2.9 -67.9 0 1 301.35 139.81 L302.22 143.63 A1.62 1.62 0 0 0 303.13 144.74 Q303.44 144.87 304.24 144.81 Q304.8 144.76 305.21 145 Q305.68 145.27 305.76 145.82 Q304.85 146.04 304.48 145.92 Q284.32 139.32 269.98 122.76 Q256.27 106.92 253.34 86.51 Q253.49 85.93 253.4 85.42 A0.53 0.53 0 0 1 254.4 85.11 L257.33 91.45 Z" /><path class="fl3" d=" M257.75 91.74 Q260.46 97.49 265.25 103.26 Q267.28 105.7 269.55 106.02 Q288.31 108.61 304.6 99.85 A0.3 0.3 0 0 1 304.98 100.3 Q299.3 107.53 290.74 110.64 Q285.12 112.68 278.4 113.26 A0.45 0.45 0 0 0 278.15 114.06 L280.54 116.01 Q277.62 117.55 275.02 115.22 Q271.77 112.31 266.79 107.83 A2.59 2.58 -11.4 0 0 266.17 107.42 Q264.04 106.45 261.88 106.49 A1.16 1.16 0 0 1 260.71 105.49 Q260.49 103.86 260.15 100.93 C259.95 99.15 258.61 99.32 257.67 98.17 A1.36 1.34 -64.8 0 1 257.37 97.32 L257.33 91.45 L257.75 91.74 Z" /><path class="fl4" d=" M375.19 130.65 Q361.42 142.83 343.31 146.88 Q338.95 147.85 334.51 148.73 L319.09 148.49 Q318.84 146.75 317.94 145.19 A1.16 1.15 43.8 0 1 317.91 144.08 L318.16 143.6 A1.47 1.44 52.4 0 0 318.28 142.61 C317.77 140.51 320.86 136.57 321.78 135.39 A0.7 0.7 0 0 0 321.79 134.54 L320.63 132.99 A0.46 0.45 -31.2 0 1 320.8 132.31 Q323.2 131.15 324.98 126.71 A1.28 1.28 0 0 0 324.88 125.56 L324.35 124.72 A0.65 0.65 0 0 1 324.61 123.8 Q326.56 122.82 326.08 120.61 Q327.95 117.67 326.13 115.53 A0.57 0.57 0 0 1 326.86 114.67 Q338.75 121.71 352.23 123.57 A0.58 0.56 -81.3 0 0 352.87 123.09 L354 116.18 A0.6 0.59 18.5 0 1 354.86 115.76 C362.44 119.74 375.26 123.78 383.92 118.72 Q384.69 118.27 385.36 118.38 A0.65 0.64 26.2 0 1 385.73 119.46 L375.19 130.65 Z" /><path class="fl1" d=" M281.83 136.02 Q280.66 135.81 280.01 135.24 Q275.74 131.53 271.7 127.56 Q271 126.87 270.85 125.75 L281.83 136.02 Z" /><path class="fl1" d=" M375.19 130.65 Q375.68 130.77 375.62 131.36 A0.64 0.61 75.3 0 1 375.38 131.79 C373.44 133.31 371.92 135.24 370.3 136.03 Q369.58 136.39 363.17 140.84 A3.98 3.88 17.2 0 1 362.29 141.29 Q360.3 142 358.31 143.23 A3.78 3.55 -68.6 0 1 357.51 143.61 Q352.34 145.36 347.61 147.35 Q343.87 148.92 335.06 149.8 Q334.98 149.22 334.51 148.73 Q338.95 147.85 343.31 146.88 Q361.42 142.83 375.19 130.65 Z" /></g><g class="fl6"><path d=" M419.75 163.81 L419.75 167.96 A0.17 0.16 -80.3 0 1 419.53 168.12 Q416.38 166.98 415.88 169.06 Q415.72 169.75 415.74 178.15 A0.64 0.63 0 0 0 416.38 178.78 L419.09 178.78 A0.43 0.42 90 0 1 419.51 179.21 L419.51 182.01 A0.48 0.48 0 0 1 419.03 182.49 L416.35 182.49 A0.6 0.6 0 0 0 415.75 183.09 L415.75 202.5 A0.49 0.49 0 0 1 415.26 202.99 L411.73 202.99 A0.47 0.47 0 0 1 411.26 202.52 L411.26 183.12 A0.61 0.61 0 0 0 410.65 182.51 L409.52 182.51 A0.51 0.51 0 0 1 409.01 182 L409.01 179.19 A0.5 0.5 0 0 1 409.58 178.7 Q410.37 178.82 410.67 178.77 A0.73 0.71 85.9 0 0 411.28 178.05 C411.19 171.19 409.48 160.22 419.54 163.51 A0.32 0.31 -81.1 0 1 419.75 163.81 Z" /><rect x="304.5" y="163.5" width="4.5" height="39.5" rx="0.38" /><path d=" M334 180.32 L334 163.97 A0.47 0.47 0 0 1 334.47 163.5 L338.01 163.5 A0.49 0.48 0 0 1 338.5 163.98 L338.5 202.33 A0.69 0.69 0 0 1 337.81 203.02 L334.5 203.02 A0.58 0.58 0 0 1 333.93 202.35 Q334.08 201.34 333.89 200.97 A0.33 0.33 0 0 0 333.29 201.01 Q332.31 203.63 329 203.3 C325.51 202.96 324.49 198.94 324.13 195.88 C323.58 191.12 323.4 184.78 325.76 180.44 A2.59 2.56 89.7 0 1 326.74 179.44 Q331.07 176.96 333.25 180.53 A0.41 0.4 29.3 0 0 334 180.32 ZM331.29 182.19 A8.72 3.02 -90 0 0 328.27 190.91 A8.72 3.02 -90 0 0 331.29 199.63 A8.72 3.02 -90 0 0 334.31 190.91 A8.72 3.02 -90 0 0 331.29 182.19 Z" /><path d=" M396.24 166.45 C405.74 166.39 405.71 178.53 405.75 184.9 C405.8 191.27 406 203.41 396.51 203.48 C387.01 203.55 387.04 191.4 387 185.03 C386.95 178.66 386.75 166.52 396.24 166.45 ZM392.14 184.99 Q392.15 188.63 392.32 192.28 Q392.64 199 396.44 198.99 Q400.23 198.97 400.5 192.25 Q400.65 188.6 400.63 184.95 Q400.62 181.31 400.45 177.66 Q400.13 170.94 396.33 170.95 Q392.54 170.97 392.27 177.69 Q392.12 181.34 392.14 184.99 Z" /><path d=" M15.01 167 Q15.69 167 16.35 167.06 A0.75 0.75 0 0 1 17.02 167.66 L24.41 202.49 A0.43 0.43 0 0 1 23.99 203.02 L20.35 203.02 A0.55 0.55 0 0 1 19.81 202.58 L18.56 196.71 A0.84 0.83 86 0 0 17.8 196.05 Q17.19 196.01 14.93 196 Q12.67 195.99 12.06 196.03 A0.84 0.83 -85.7 0 0 11.3 196.69 L10.02 202.55 A0.55 0.55 0 0 1 9.47 202.99 L5.83 202.97 A0.43 0.43 0 0 1 5.42 202.44 L12.99 167.65 A0.75 0.75 0 0 1 13.66 167.05 Q14.32 167 15.01 167 ZM17.55 191.71 L14.96 175.73 A0.07 0.07 0 0 0 14.82 175.73 L12.2 191.73 A0.47 0.46 4.7 0 0 12.66 192.27 L17.08 192.27 A0.48 0.48 0 0 0 17.55 191.71 Z" /><path d=" M193.59 191.16 Q192.38 179.17 192.82 167.26 A0.26 0.26 0 0 1 193.08 167.01 L197.46 167.01 A0.29 0.29 0 0 1 197.75 167.3 L197.75 202.36 A0.64 0.64 0 0 1 197.11 203 L193.92 203 A1.02 1.01 80.8 0 1 192.96 202.3 L186.03 181.37 A1.25 1.19 -57.5 0 1 185.97 181.06 L185.59 177.75 A0.11 0.11 0 0 0 185.47 177.65 L185.23 177.69 A0.01 0.01 0 0 0 185.22 177.7 L185.83 202.51 A0.43 0.42 -1.3 0 1 185.41 202.94 L181.42 203.04 A0.41 0.41 0 0 1 181 202.63 L181 167.58 A0.59 0.59 0 0 1 181.59 166.99 L184.76 166.99 A1.19 1.19 0 0 1 185.89 167.81 L193.43 191.2 A0.08 0.08 0 0 0 193.59 191.16 Z" /><circle cx="91.29" cy="171.64" r="3.02" /><circle cx="238.8" cy="171.63" r="3.02" /><circle cx="425.04" cy="171.63" r="3.02" /><circle cx="449.04" cy="171.63" r="3.02" /><circle cx="478.04" cy="171.63" r="3.02" /><path d=" M139.05 173.92 Q138.44 173.69 137.82 173.55 A0.96 0.95 22.6 0 0 136.8 173.96 Q136.03 175.19 134.21 174.69 A0.56 0.55 9 0 1 133.81 174.15 Q134.01 169.17 138.57 170.47 Q139.47 170.72 140.35 171.05 Q140.96 171.28 141.58 171.43 A0.96 0.95 22.6 0 0 142.6 171.01 Q143.37 169.78 145.19 170.28 A0.56 0.55 9 0 1 145.59 170.82 Q145.39 175.8 140.83 174.5 Q139.93 174.25 139.05 173.92 Z" /><path d=" M30.93 192.34 C27.21 189.27 25.23 186.97 27.04 181.86 A3.55 3.46 -17 0 1 27.57 180.9 Q30.87 176.75 36.41 178.95 A0.94 0.93 -79.5 0 1 37 179.82 L37 182.83 A0.37 0.37 0 0 1 36.44 183.15 C33.49 181.36 29.16 182.33 30.91 186.55 Q31.21 187.28 33.47 189.13 C37.17 192.22 39.15 194.52 37.34 199.63 A3.55 3.46 -17 0 1 36.81 200.59 Q33.51 204.74 27.97 202.54 A0.94 0.93 -79.5 0 1 27.38 201.67 L27.38 198.66 A0.37 0.37 0 0 1 27.94 198.34 C30.89 200.13 35.22 199.16 33.47 194.94 Q33.17 194.21 30.93 192.34 Z" /><path d=" M45.45 192.32 C41.73 189.26 39.75 186.96 41.57 181.85 A3.55 3.46 -17 0 1 42.09 180.9 Q45.39 176.75 50.92 178.95 A0.94 0.92 -79.5 0 1 51.51 179.82 L51.51 182.82 A0.37 0.37 0 0 1 50.95 183.14 C48 181.36 43.68 182.32 45.42 186.54 Q45.73 187.27 47.98 189.11 C51.68 192.2 53.66 194.5 51.85 199.6 A3.55 3.46 -17 0 1 51.32 200.56 Q48.03 204.7 42.49 202.51 A0.94 0.92 -79.5 0 1 41.9 201.64 L41.9 198.63 A0.37 0.37 0 0 1 42.46 198.31 C45.41 200.1 49.73 199.13 47.99 194.92 Q47.69 194.19 45.45 192.32 Z" /><path d=" M366.17 192.34 C362.46 189.25 360.48 186.94 362.32 181.83 A3.55 3.46 -16.8 0 1 362.85 180.88 Q366.16 176.73 371.7 178.96 A0.94 0.93 -79.3 0 1 372.29 179.83 L372.28 182.84 A0.37 0.37 0 0 1 371.71 183.16 C368.77 181.36 364.43 182.31 366.16 186.54 Q366.46 187.27 368.72 189.13 C372.41 192.24 374.39 194.55 372.55 199.66 A3.55 3.46 -16.8 0 1 372.02 200.61 Q368.7 204.75 363.17 202.53 A0.94 0.93 -79.3 0 1 362.58 201.66 L362.59 198.65 A0.37 0.37 0 0 1 363.15 198.33 C366.1 200.13 370.44 199.18 368.7 194.94 Q368.4 194.22 366.17 192.34 Z" /><path d=" M489.45 192.32 C485.73 189.26 483.75 186.96 485.56 181.85 A3.55 3.46 -17 0 1 486.09 180.9 Q489.39 176.75 494.92 178.95 A0.94 0.92 -79.5 0 1 495.51 179.82 L495.51 182.83 A0.37 0.37 0 0 1 494.95 183.14 C492 181.36 487.68 182.33 489.42 186.54 Q489.72 187.27 491.98 189.11 C495.68 192.2 497.66 194.5 495.84 199.61 A3.55 3.46 -17 0 1 495.32 200.56 Q492.02 204.71 486.49 202.51 A0.94 0.92 -79.5 0 1 485.9 201.64 L485.9 198.64 A0.37 0.37 0 0 1 486.46 198.32 C489.4 200.1 493.73 199.14 491.98 194.92 Q491.68 194.19 489.45 192.32 Z" /><path d=" M63.18 178.5 C69.73 178.52 70.8 185.54 70.79 190.92 C70.78 196.29 69.68 203.31 63.13 203.3 C56.58 203.29 55.51 196.26 55.52 190.89 C55.53 185.51 56.63 178.49 63.18 178.5 ZM60.33 190.88 Q60.32 199.28 63.21 199.28 Q66.09 199.29 66.09 190.88 Q66.1 182.48 63.21 182.48 Q60.33 182.48 60.33 190.88 Z" /><path d=" M79.24 190.92 C79.24 194.31 79.64 201.32 84.75 198.51 A0.17 0.17 0 0 1 85 198.66 L85 202.3 A0.3 0.3 0 0 1 84.8 202.58 Q78.31 204.99 75.82 199.67 Q74.22 196.25 74.23 190.91 Q74.23 185.58 75.84 182.16 Q78.33 176.85 84.82 179.27 A0.3 0.3 0 0 1 85.02 179.55 L85.01 183.19 A0.17 0.17 0 0 1 84.76 183.33 C79.66 180.52 79.25 187.53 79.24 190.92 Z" /><path d=" M98.24 190.92 C98.24 187.55 98.65 184.16 100.05 180.8 A2.22 2.2 81.2 0 1 100.65 179.97 Q104.82 176.47 107.93 180.72 A0.33 0.33 0 0 0 108.52 180.59 Q108.56 180.31 108.42 179.57 A0.68 0.67 84.2 0 1 109.07 178.76 L112.23 178.75 A0.78 0.77 -89.8 0 1 113.01 179.53 Q112.97 184.93 113 190.89 Q113 196.84 113.05 202.24 A0.78 0.77 89.6 0 1 112.28 203.03 L109.12 203.03 A0.68 0.67 -84.4 0 1 108.46 202.22 Q108.6 201.48 108.56 201.2 A0.33 0.33 0 0 0 107.97 201.07 Q104.87 205.33 100.69 201.85 A2.22 2.2 -81.4 0 1 100.09 201.02 C98.68 197.66 98.25 194.28 98.24 190.92 ZM105.77 182.2 A8.72 3.02 -90.1 0 0 102.77 190.93 A8.72 3.02 -90.1 0 0 105.81 199.64 A8.72 3.02 -90.1 0 0 108.81 190.91 A8.72 3.02 -90.1 0 0 105.77 182.2 Z" /><path d=" M117.48 190.92 Q117.49 185.59 119.09 182.17 Q121.58 176.86 128.06 179.28 A0.3 0.3 0 0 1 128.26 179.56 L128.26 183.2 A0.17 0.17 0 0 1 128.01 183.34 C122.91 180.53 122.5 187.53 122.49 190.92 C122.49 194.31 122.89 201.31 127.99 198.51 A0.17 0.17 0 0 1 128.24 198.65 L128.24 202.29 A0.3 0.3 0 0 1 128.04 202.57 Q121.56 204.98 119.08 199.66 Q117.48 196.24 117.48 190.92 Z" /><path d=" M131.49 190.91 C131.48 187.54 131.9 184.16 133.3 180.79 A2.22 2.21 81.2 0 1 133.9 179.97 Q138.07 176.46 141.18 180.71 A0.33 0.33 0 0 0 141.77 180.58 Q141.81 180.3 141.67 179.56 A0.68 0.67 84.2 0 1 142.33 178.75 L145.49 178.74 A0.78 0.77 -89.8 0 1 146.26 179.52 Q146.23 184.93 146.25 190.88 Q146.25 196.84 146.3 202.24 A0.78 0.77 89.6 0 1 145.53 203.03 L142.37 203.03 A0.68 0.67 -84.4 0 1 141.71 202.22 Q141.85 201.48 141.81 201.2 A0.33 0.33 0 0 0 141.22 201.07 Q138.12 205.33 133.94 201.85 A2.22 2.21 -81.4 0 1 133.33 201.02 C131.93 197.66 131.5 194.28 131.49 190.91 ZM139.02 182.2 A8.71 3.02 -90.1 0 0 136.02 190.92 A8.71 3.02 -90.1 0 0 139.06 199.62 A8.71 3.02 -90.1 0 0 142.06 190.9 A8.71 3.02 -90.1 0 0 139.02 182.2 Z" /><path d=" M150.77 190.88 C150.78 185.51 151.88 178.49 158.43 178.5 C164.98 178.51 166.05 185.54 166.04 190.91 C166.03 196.28 164.93 203.3 158.38 203.29 C151.83 203.28 150.76 196.25 150.77 190.88 ZM155.57 190.88 Q155.56 199.28 158.45 199.28 Q161.33 199.29 161.34 190.89 Q161.35 182.49 158.46 182.48 Q155.59 182.48 155.57 190.88 Z" /><path d=" M217.25 190.89 Q217.24 196.84 217.29 202.24 A0.78 0.77 89.7 0 1 216.52 203.03 L213.36 203.03 A0.68 0.67 -84.4 0 1 212.7 202.22 Q212.84 201.48 212.8 201.2 A0.33 0.33 0 0 0 212.21 201.07 Q209.11 205.33 204.93 201.84 A2.22 2.2 -81.4 0 1 204.33 201.02 C202.92 197.66 202.49 194.27 202.49 190.91 C202.48 187.54 202.9 184.15 204.3 180.79 A2.22 2.2 81.3 0 1 204.9 179.96 Q209.07 176.46 212.18 180.71 A0.33 0.33 0 0 0 212.77 180.58 Q212.81 180.3 212.67 179.56 A0.68 0.67 84.2 0 1 213.33 178.75 L216.49 178.74 A0.78 0.77 -89.8 0 1 217.26 179.53 Q217.22 184.93 217.25 190.89 ZM210.02 182.19 A8.72 3.02 -90.1 0 0 207.02 190.92 A8.72 3.02 -90.1 0 0 210.06 199.63 A8.72 3.02 -90.1 0 0 213.06 190.9 A8.72 3.02 -90.1 0 0 210.02 182.19 Z" /><path d=" M221.73 190.92 Q221.74 185.59 223.34 182.17 Q225.83 176.85 232.31 179.27 A0.3 0.3 0 0 1 232.51 179.55 L232.51 183.19 A0.17 0.17 0 0 1 232.26 183.33 C227.16 180.53 226.75 187.53 226.75 190.92 C226.75 194.31 227.16 201.31 232.26 198.51 A0.17 0.17 0 0 1 232.51 198.65 L232.51 202.29 A0.3 0.3 0 0 1 232.31 202.57 Q225.83 204.99 223.34 199.67 Q221.73 196.25 221.73 190.92 Z" /><path d=" M245.77 190.88 C245.78 185.51 246.88 178.49 253.43 178.5 C259.98 178.51 261.05 185.54 261.04 190.91 C261.03 196.28 259.93 203.3 253.38 203.29 C246.83 203.28 245.76 196.25 245.77 190.88 ZM250.57 190.88 Q250.56 199.28 253.45 199.29 Q256.33 199.29 256.34 190.89 Q256.35 182.48 253.46 182.48 Q250.59 182.48 250.57 190.88 Z" /><path d=" M270.52 180.98 Q270.73 180.91 270.99 180.08 Q271.02 179.98 271.63 179.57 C275.67 176.88 279.56 179.16 279.69 183.79 Q279.8 187.89 279.73 202.47 A0.51 0.51 0 0 1 279.22 202.98 L275.74 202.98 A0.49 0.48 90 0 1 275.26 202.49 L275.23 184.91 A2.45 2.45 0 0 0 272.67 182.46 L272.56 182.46 A2.6 2.59 89.4 0 0 270.03 185.05 L269.99 202.54 A0.44 0.44 0 0 1 269.55 202.98 L265.95 202.98 A0.45 0.44 90 0 1 265.51 202.53 L265.51 179.29 A0.54 0.54 0 0 1 266.05 178.75 L269.48 178.75 A0.59 0.59 0 0 1 270.07 179.42 L269.93 180.49 A0.45 0.45 0 0 0 270.52 180.98 Z" /><path d=" M284.24 190.91 C284.24 187.54 284.66 184.16 286.05 180.8 A2.22 2.2 81.2 0 1 286.65 179.97 Q290.82 176.47 293.93 180.72 A0.33 0.33 0 0 0 294.52 180.58 Q294.56 180.3 294.42 179.56 A0.68 0.67 84.2 0 1 295.08 178.75 L298.24 178.74 A0.78 0.77 -89.8 0 1 299.01 179.53 Q298.97 184.93 299 190.88 Q298.99 196.84 299.05 202.24 A0.78 0.77 89.6 0 1 298.28 203.03 L295.12 203.03 A0.68 0.67 -84.4 0 1 294.46 202.22 Q294.6 201.48 294.56 201.2 A0.33 0.33 0 0 0 293.97 201.07 Q290.87 205.33 286.69 201.84 A2.22 2.2 -81.4 0 1 286.08 201.02 C284.68 197.66 284.25 194.28 284.24 190.91 ZM291.77 182.2 A8.72 3.02 -90.1 0 0 288.77 190.93 A8.72 3.02 -90.1 0 0 291.81 199.64 A8.72 3.02 -90.1 0 0 294.81 190.91 A8.72 3.02 -90.1 0 0 291.77 182.2 Z" /><path d=" M343.02 190.88 C343.04 185.5 344.13 178.48 350.68 178.5 C357.23 178.52 358.3 185.54 358.28 190.91 C358.27 196.28 357.17 203.3 350.62 203.29 C344.07 203.27 343.01 196.25 343.02 190.88 ZM347.82 190.88 Q347.81 199.28 350.7 199.29 Q353.57 199.29 353.59 190.89 Q353.61 182.49 350.71 182.49 Q347.84 182.48 347.82 190.88 Z" /><path d=" M431.73 190.92 Q431.73 185.59 433.34 182.17 Q435.83 176.85 442.31 179.27 A0.3 0.3 0 0 1 442.51 179.55 L442.51 183.19 A0.17 0.17 0 0 1 442.26 183.33 C437.16 180.53 436.75 187.53 436.75 190.92 C436.75 194.31 437.16 201.31 442.26 198.5 A0.17 0.17 0 0 1 442.51 198.65 L442.51 202.29 A0.3 0.3 0 0 1 442.31 202.57 Q435.83 204.98 433.34 199.67 Q431.73 196.25 431.73 190.92 Z" /><path d=" M455.73 190.91 C455.72 187.54 456.14 184.16 457.54 180.79 A2.22 2.2 81.2 0 1 458.14 179.97 Q462.31 176.47 465.42 180.71 A0.33 0.33 0 0 0 466.01 180.58 Q466.05 180.3 465.91 179.56 A0.68 0.67 84.2 0 1 466.56 178.75 L469.72 178.74 A0.78 0.77 -89.8 0 1 470.5 179.52 Q470.46 184.93 470.49 190.88 Q470.48 196.83 470.54 202.24 A0.78 0.77 89.6 0 1 469.77 203.02 L466.61 203.03 A0.68 0.67 -84.4 0 1 465.95 202.22 Q466.09 201.48 466.05 201.2 A0.33 0.33 0 0 0 465.46 201.07 Q462.36 205.33 458.18 201.84 A2.22 2.2 -81.4 0 1 457.58 201.02 C456.17 197.66 455.74 194.28 455.73 190.91 ZM463.27 182.19 A8.72 3.02 -90.1 0 0 460.27 190.92 A8.72 3.02 -90.1 0 0 463.31 199.63 A8.72 3.02 -90.1 0 0 466.31 190.9 A8.72 3.02 -90.1 0 0 463.27 182.19 Z" /><rect x="89.25" y="178.76" width="4.5" height="24.22" rx="0.40" /><rect x="236.75" y="178.76" width="4.5" height="24.24" rx="0.37" /><rect x="423" y="178.76" width="4.5" height="24.24" rx="0.40" /><rect x="447" y="178.76" width="4.5" height="24.24" rx="0.40" /><rect x="476" y="178.76" width="4.5" height="24.24" rx="0.40" /><path d=" M126.56 224.51 C128.43 221.19 133.55 221.16 135.25 224.21 Q136.01 225.59 136 230.05 Q136 237.83 136 245.97 A0.54 0.54 0 0 1 135.46 246.51 L132.02 246.51 A0.51 0.51 0 0 1 131.51 246 L131.47 228.32 A2.37 2.37 0 0 0 128.96 225.96 L128.75 225.97 A2.54 2.54 0 0 0 126.28 228.51 L126.24 246.09 A0.41 0.41 0 0 1 125.83 246.5 L122.15 246.5 A0.4 0.4 0 0 1 121.75 246.1 L121.75 213.49 A1.51 1.41 -60.4 0 0 121.59 212.82 Q121.51 212.66 120.86 212.42 A0.51 0.5 -64 0 1 120.61 211.67 Q121.93 209.65 121.67 207.83 A0.64 0.64 0 0 1 122.1 207.14 Q122.95 206.85 123.22 205.97 A0.4 0.39 -70.1 0 1 123.74 205.72 L125.76 206.53 A0.77 0.77 0 0 1 126.25 207.25 L126.25 224.43 A0.17 0.17 0 0 0 126.56 224.51 Z" /><path d=" M64.25 224.02 A0.4 0.4 0 0 0 65 223.81 L65.01 207.48 A0.47 0.47 0 0 1 65.48 207.01 L69.01 207.01 A0.49 0.48 0 0 1 69.5 207.49 L69.49 245.8 A0.69 0.69 0 0 1 68.8 246.48 L65.5 246.48 A0.58 0.58 0 0 1 64.93 245.81 Q65.08 244.8 64.89 244.44 A0.33 0.33 0 0 0 64.29 244.47 Q63.31 247.09 60 246.76 C56.52 246.42 55.5 242.4 55.14 239.35 C54.59 234.59 54.42 228.26 56.77 223.93 A2.58 2.56 89.7 0 1 57.75 222.93 Q62.08 220.45 64.25 224.02 ZM62.27 225.69 A8.71 3.02 -90.1 0 0 59.27 234.41 A8.71 3.02 -90.1 0 0 62.31 243.11 A8.71 3.02 -90.1 0 0 65.31 234.39 A8.71 3.02 -90.1 0 0 62.27 225.69 Z" /><rect x="212.5" y="206.99" width="4.5" height="39.5" rx="0.39" /><path d=" M302.76 224.03 A0.41 0.4 29.2 0 0 303.51 223.82 L303.5 207.46 A0.47 0.47 0 0 1 303.97 206.99 L307.51 206.99 A0.49 0.48 0 0 1 308 207.47 L308.03 245.83 A0.69 0.69 0 0 1 307.34 246.52 L304.02 246.53 A0.58 0.58 0 0 1 303.45 245.86 Q303.6 244.85 303.41 244.48 A0.33 0.33 0 0 0 302.81 244.52 Q301.83 247.14 298.52 246.81 C295.03 246.47 294.01 242.45 293.65 239.39 C293.09 234.63 292.91 228.29 295.27 223.94 A2.59 2.56 89.7 0 1 296.25 222.94 Q300.58 220.46 302.76 224.03 ZM300.77 225.69 A8.73 3.01 -90.1 0 0 297.78 234.43 A8.73 3.01 -90.1 0 0 300.81 243.15 A8.73 3.01 -90.1 0 0 303.8 234.41 A8.73 3.01 -90.1 0 0 300.77 225.69 Z" /><path d=" M108 228.47 C108 232.91 108.13 236.68 110.25 240.15 A3.42 3.16 -87.2 0 0 110.87 240.89 Q113.59 243.3 117.26 241.65 A0.15 0.14 76.6 0 1 117.46 241.78 L117.55 245.64 A0.4 0.39 76.4 0 1 117.33 246.01 C111.5 248.82 105.89 245.22 104.17 239.35 Q102.75 234.5 102.75 228.47 Q102.75 222.44 104.16 217.59 C105.87 211.72 111.48 208.11 117.31 210.91 A0.4 0.39 -76.4 0 1 117.53 211.28 L117.44 215.14 A0.15 0.14 -76.6 0 1 117.24 215.27 Q113.57 213.63 110.86 216.04 A3.42 3.16 87.1 0 0 110.24 216.78 C108.12 220.26 108 224.02 108 228.47 Z" /><path d=" M354.78 215.31 A0.42 0.42 0 0 1 354.11 215.64 C351.4 213.6 347.58 214.03 346.63 217.71 Q345.76 221.1 348.42 223.92 C352.31 228.02 356.39 231.34 356.44 237.23 C356.5 244.46 350.19 249.65 343.34 245.67 A1.2 1.18 -75.2 0 1 342.75 244.64 L342.75 240.87 A0.26 0.26 0 0 1 343.2 240.69 C343.77 241.29 345.67 242.15 346.87 242.26 Q351.28 242.68 351.69 237.76 C352.02 233.84 348.27 230.49 345 227.3 Q340.95 223.35 341.85 217.54 Q343.33 207.94 353.78 210.68 A1.34 1.33 7.3 0 1 354.78 211.97 L354.78 215.31 Z" /><circle cx="256.79" cy="215.13" r="3.01" /><circle cx="411.79" cy="215.13" r="3.01" /><path d=" M246.59 224.32 C248.03 223.01 248.61 221.88 250.85 221.83 A0.39 0.39 0 0 1 251.24 222.22 L251.24 226.14 A0.39 0.38 3.3 0 1 250.81 226.52 Q245.9 225.96 245.98 231.26 Q245.99 231.71 246 246.02 A0.48 0.47 90 0 1 245.53 246.5 L241.95 246.5 A0.46 0.45 -90 0 1 241.5 246.04 L241.5 222.82 A0.57 0.57 0 0 1 242.07 222.25 L245.43 222.25 A0.56 0.56 0 0 1 245.99 222.81 L245.99 224.06 A0.36 0.36 0 0 0 246.59 224.32 Z" /><path d=" M383.25 224.05 A0.36 0.36 0 0 0 383.85 224.31 C385.29 223 385.88 221.87 388.12 221.82 A0.39 0.39 0 0 1 388.51 222.21 L388.51 226.14 A0.39 0.38 3.4 0 1 388.08 226.52 Q383.16 225.95 383.24 231.26 Q383.25 231.71 383.25 246.04 A0.48 0.47 -90 0 1 382.78 246.52 L379.19 246.51 A0.46 0.45 -90 0 1 378.74 246.05 L378.76 222.81 A0.57 0.57 0 0 1 379.33 222.24 L382.69 222.24 A0.56 0.56 0 0 1 383.25 222.8 L383.25 224.05 Z" /><path d=" M84.66 238.24 L87.58 238.24 A0.57 0.57 0 0 1 88.14 238.93 Q88.01 239.58 87.75 240.82 Q86.2 248.63 78.23 246.31 C76.93 245.94 75.32 243.92 74.93 242.54 C73.47 237.33 71.96 221.87 81.13 221.99 C87.28 222.07 88.72 229.94 88.24 234.7 A0.62 0.61 -86.8 0 1 87.63 235.25 L79.33 235.25 A1.22 1.22 0 0 0 78.12 236.66 L78.82 241.01 A2.25 2.23 -83.2 0 0 80.15 242.71 C83.05 243.95 84.15 240.97 84 238.94 A0.66 0.65 -2 0 1 84.66 238.24 ZM78.79 231.99 L83.17 232.01 A0.58 0.58 0 0 0 83.76 231.43 L83.76 231.26 A5.57 2.7 -89.7 0 0 81.09 225.68 L80.95 225.68 A5.57 2.7 -89.7 0 0 78.22 231.24 L78.22 231.41 A0.58 0.58 0 0 0 78.79 231.99 Z" /><path d=" M140.49 234.4 C140.48 231.03 140.9 227.65 142.3 224.29 A2.22 2.21 81.2 0 1 142.9 223.46 Q147.07 219.96 150.18 224.21 A0.33 0.33 0 0 0 150.77 224.08 Q150.81 223.8 150.67 223.06 A0.68 0.67 84.2 0 1 151.33 222.24 L154.49 222.23 A0.78 0.77 -89.8 0 1 155.26 223.02 Q155.22 228.42 155.25 234.38 Q155.24 240.33 155.3 245.74 A0.78 0.77 89.6 0 1 154.53 246.52 L151.37 246.53 A0.68 0.67 -84.4 0 1 150.71 245.72 Q150.85 244.98 150.81 244.7 A0.33 0.33 0 0 0 150.22 244.57 Q147.12 248.83 142.94 245.34 A2.22 2.21 -81.4 0 1 142.33 244.51 C140.92 241.15 140.49 237.77 140.49 234.4 ZM148.02 225.69 A8.71 3.02 -90.1 0 0 145.02 234.41 A8.71 3.02 -90.1 0 0 148.06 243.11 A8.71 3.02 -90.1 0 0 151.06 234.39 A8.71 3.02 -90.1 0 0 148.02 225.69 Z" /><path d=" M165.16 223.99 A0.45 0.45 0 0 0 165.75 224.48 Q165.96 224.41 166.22 223.58 Q166.25 223.48 166.86 223.06 C170.91 220.37 174.81 222.65 174.94 227.29 Q175.06 231.4 175 246.01 A0.51 0.51 0 0 1 174.49 246.52 L171 246.52 A0.49 0.48 90 0 1 170.52 246.03 L170.47 228.41 A2.46 2.46 0 0 0 167.91 225.96 L167.8 225.96 A2.61 2.6 89.4 0 0 165.26 228.56 L165.24 246.08 A0.44 0.44 0 0 1 164.79 246.53 L161.19 246.53 A0.45 0.44 90 0 1 160.75 246.08 L160.73 222.79 A0.54 0.54 0 0 1 161.27 222.25 L164.71 222.24 A0.6 0.59 3.8 0 1 165.3 222.92 L165.16 223.99 Z" /><path d=" M179.48 234.39 Q179.5 229.06 181.12 225.65 Q183.62 220.35 190.1 222.78 A0.3 0.3 0 0 1 190.3 223.06 L190.28 226.7 A0.17 0.17 0 0 1 190.03 226.85 C184.94 224.02 184.51 231.02 184.5 234.41 C184.48 237.8 184.86 244.8 189.97 242.01 A0.17 0.17 0 0 1 190.22 242.16 L190.21 245.8 A0.3 0.3 0 0 1 190.01 246.08 Q183.52 248.47 181.05 243.14 Q179.46 239.72 179.48 234.39 Z" /><path d=" M204.4 238.24 L207.32 238.24 A0.57 0.57 0 0 1 207.88 238.93 Q207.75 239.58 207.5 240.82 Q205.94 248.64 197.97 246.31 C196.67 245.94 195.06 243.92 194.67 242.54 C193.21 237.33 191.71 221.87 200.87 221.99 C207.03 222.08 208.47 229.94 207.98 234.71 A0.62 0.61 -86.8 0 1 207.37 235.26 L199.07 235.25 A1.22 1.22 0 0 0 197.86 236.67 L198.56 241.01 A2.25 2.23 -83.2 0 0 199.89 242.71 C202.79 243.96 203.89 240.97 203.74 238.94 A0.66 0.65 -2 0 1 204.4 238.24 ZM198.44 231.99 L203 232.01 A0.47 0.47 0 0 0 203.48 231.54 L203.48 231.4 A5.69 2.54 -89.7 0 0 200.97 225.7 L200.55 225.7 A5.69 2.54 -89.7 0 0 197.98 231.38 L197.98 231.52 A0.47 0.47 0 0 0 198.44 231.99 Z" /><path d=" M221.23 234.41 C221.23 231.04 221.65 227.66 223.05 224.3 A2.22 2.21 81.3 0 1 223.65 223.47 Q227.82 219.97 230.93 224.22 A0.33 0.33 0 0 0 231.52 224.09 Q231.56 223.81 231.42 223.07 A0.68 0.67 84.2 0 1 232.08 222.26 L235.24 222.25 A0.78 0.77 -89.8 0 1 236.01 223.03 Q235.97 228.44 236 234.39 Q235.99 240.35 236.04 245.75 A0.78 0.77 89.7 0 1 235.27 246.54 L232.11 246.54 A0.68 0.67 -84.4 0 1 231.45 245.73 Q231.59 244.99 231.55 244.71 A0.33 0.33 0 0 0 230.96 244.58 Q227.86 248.84 223.68 245.35 A2.22 2.21 -81.4 0 1 223.07 244.52 C221.67 241.16 221.24 237.78 221.23 234.41 ZM228.77 225.69 A8.73 3.01 -90.1 0 0 225.78 234.43 A8.73 3.01 -90.1 0 0 228.81 243.15 A8.73 3.01 -90.1 0 0 231.8 234.41 A8.73 3.01 -90.1 0 0 228.77 225.69 Z" /><path d=" M263.72 234.41 C263.72 231.04 264.14 227.65 265.53 224.29 A2.22 2.21 81.2 0 1 266.13 223.46 Q270.31 219.96 273.42 224.21 A0.33 0.33 0 0 0 274.01 224.08 Q274.05 223.8 273.91 223.06 A0.68 0.67 84.2 0 1 274.56 222.24 L277.73 222.24 A0.78 0.77 -89.8 0 1 278.5 223.02 Q278.46 228.43 278.49 234.38 Q278.49 240.34 278.54 245.75 A0.78 0.77 89.6 0 1 277.77 246.53 L274.61 246.53 A0.68 0.67 -84.4 0 1 273.95 245.72 Q274.09 244.98 274.05 244.7 A0.33 0.33 0 0 0 273.46 244.57 Q270.36 248.84 266.17 245.35 A2.22 2.21 -81.4 0 1 265.57 244.52 C264.16 241.16 263.73 237.78 263.72 234.41 ZM271.27 225.7 A8.7 3.02 -90.1 0 0 268.27 234.41 A8.7 3.02 -90.1 0 0 271.31 243.1 A8.7 3.02 -90.1 0 0 274.31 234.39 A8.7 3.02 -90.1 0 0 271.27 225.7 Z" /><path d=" M312.52 234.39 C312.53 229.01 313.63 221.99 320.18 222.01 C326.73 222.02 327.8 229.04 327.79 234.41 C327.78 239.79 326.68 246.81 320.13 246.8 C313.58 246.78 312.51 239.76 312.52 234.39 ZM317.32 234.37 Q317.32 242.78 320.2 242.78 Q323.09 242.77 323.09 234.37 Q323.08 225.97 320.21 225.97 Q317.31 225.97 317.32 234.37 Z" /><path d=" M370.66 238.24 L373.58 238.24 A0.57 0.57 0 0 1 374.14 238.93 Q374.01 239.58 373.76 240.82 Q372.2 248.63 364.23 246.31 C362.93 245.94 361.32 243.92 360.93 242.54 C359.47 237.33 357.96 221.87 367.12 221.99 C373.28 222.07 374.72 229.94 374.24 234.7 A0.62 0.61 -86.8 0 1 373.63 235.25 L365.32 235.25 A1.22 1.22 0 0 0 364.11 236.67 L364.82 241.01 A2.25 2.23 -83.2 0 0 366.15 242.71 C369.05 243.95 370.15 240.97 370 238.94 A0.66 0.65 -2 0 1 370.66 238.24 ZM364.8 231.98 L369.16 232.02 A0.57 0.57 0 0 0 369.73 231.45 L369.73 231.29 A5.55 2.59 -89.6 0 0 367.18 225.72 L366.86 225.72 A5.55 2.59 -89.6 0 0 364.23 231.25 L364.23 231.41 A0.57 0.57 0 0 0 364.8 231.98 Z" /><path d=" M398.95 239.47 Q399.08 239.47 399.13 239.03 Q400.2 230.59 402.35 222.53 A0.4 0.39 -82.3 0 1 402.73 222.24 L406.5 222.24 A0.27 0.27 0 0 1 406.76 222.58 L400.64 245.8 A0.89 0.89 0 0 1 399.9 246.45 Q399.44 246.52 398.95 246.52 Q398.46 246.52 398 246.45 A0.89 0.89 0 0 1 397.27 245.8 L391.15 222.58 A0.27 0.27 0 0 1 391.41 222.24 L395.18 222.24 A0.4 0.39 82.3 0 1 395.56 222.53 Q397.71 230.59 398.77 239.03 Q398.83 239.47 398.95 239.47 Z" /><path d=" M418.73 234.42 Q418.74 229.09 420.35 225.67 Q422.85 220.36 429.33 222.78 A0.3 0.3 0 0 1 429.53 223.06 L429.52 226.7 A0.17 0.17 0 0 1 429.27 226.85 C424.17 224.03 423.75 231.04 423.75 234.42 C423.74 237.81 424.14 244.82 429.25 242.02 A0.17 0.17 0 0 1 429.5 242.17 L429.49 245.8 A0.3 0.3 0 0 1 429.29 246.08 Q422.81 248.49 420.32 243.17 Q418.73 239.75 418.73 234.42 Z" /><path d=" M432.77 234.38 C432.78 229.01 433.88 221.99 440.43 222.01 C446.98 222.02 448.04 229.04 448.03 234.41 C448.02 239.79 446.93 246.8 440.38 246.79 C433.83 246.78 432.76 239.76 432.77 234.38 ZM437.57 234.37 Q437.57 242.78 440.45 242.78 Q443.34 242.78 443.34 234.37 Q443.34 225.97 440.46 225.97 Q437.57 225.97 437.57 234.37 Z" /><rect x="254.75" y="222.27" width="4.5" height="24.24" rx="0.39" /><rect x="409.75" y="222.26" width="4.5" height="24.24" rx="0.39" /><path d=" M427.39 250.36 A0.25 0.25 0 0 1 427.5 250.69 L427.41 250.86 A6.94 0.78 -62 0 1 423.46 256.62 L422.01 255.85 A6.94 0.78 -62 0 1 424.58 249.36 L424.67 249.19 A0.25 0.25 0 0 1 425.01 249.09 L427.39 250.36 Z" /><rect x="322.75" y="250.76" width="4.5" height="39.5" rx="0.36" /><path d=" M127.12 273.75 L120.64 273.75 A0.39 0.39 0 0 0 120.25 274.14 L120.25 285.86 A0.39 0.39 0 0 0 120.64 286.25 L127.86 286.25 A0.39 0.39 0 0 1 128.25 286.64 L128.25 289.86 A0.39 0.39 0 0 1 127.86 290.25 L115.89 290.25 A0.39 0.39 0 0 1 115.5 289.86 L115.5 254.64 A0.39 0.39 0 0 1 115.89 254.25 L127.86 254.25 A0.39 0.39 0 0 1 128.25 254.64 L128.25 257.86 A0.39 0.39 0 0 1 127.86 258.25 L120.63 258.25 A0.39 0.39 0 0 0 120.24 258.64 L120.24 269.37 A0.39 0.39 0 0 0 120.63 269.76 L127.12 269.76 A0.39 0.39 0 0 1 127.51 270.15 L127.51 273.36 A0.39 0.39 0 0 1 127.12 273.75 Z" /><path d=" M256.17 272.13 Q256.17 272.15 256.17 272.16 A0.06 0.05 22.7 0 0 256.2 272.21 Q260.08 273.93 260.54 278.55 C261.03 283.61 259.85 289.46 253.88 290.07 Q251.59 290.3 246.89 290.21 A0.65 0.64 87.2 0 1 246.26 289.64 Q246.18 288.85 246 272.24 Q245.82 255.63 245.88 254.85 A0.65 0.64 -88.4 0 1 246.5 254.26 Q251.19 254.07 253.49 254.25 C259.47 254.73 260.78 260.55 260.4 265.62 Q260.04 270.25 256.2 272.05 A0.06 0.05 -23.9 0 0 256.17 272.1 Q256.17 272.11 256.17 272.13 ZM250.52 258.61 L250.5 269.63 A0.41 0.41 0 0 0 250.91 270.04 L251.57 270.04 A4.3 3.91 -89.9 0 0 255.49 265.74 L255.49 262.5 A4.3 3.91 -89.9 0 0 251.59 258.2 L250.93 258.2 A0.41 0.41 0 0 0 250.52 258.61 ZM250.52 274.4 L250.48 285.68 A0.4 0.4 0 0 0 250.88 286.08 L251.53 286.08 A4.47 4.19 -89.8 0 0 255.73 281.63 L255.75 278.49 A4.47 4.19 -89.8 0 0 251.57 274 L250.92 274 A0.4 0.4 0 0 0 250.52 274.4 Z" /><circle cx="195.79" cy="258.88" r="3.01" /><circle cx="315.04" cy="258.88" r="3.01" /><circle cx="352.79" cy="258.88" r="3.01" /><path d=" M154.25 259.25 Q155.46 259.25 155.9 259.28 A0.65 0.64 -88.3 0 1 156.5 259.93 L156.5 265.43 A0.58 0.57 0 0 0 157.08 266 L158.48 266 A0.53 0.53 0 0 1 159.01 266.53 L159.01 269.23 A0.52 0.52 0 0 1 158.49 269.75 L157.1 269.75 A0.59 0.59 0 0 0 156.51 270.34 L156.51 289.54 A0.65 0.65 0 0 1 155.92 290.19 Q155.34 290.25 154.25 290.25 Q153.17 290.25 152.58 290.19 A0.65 0.65 0 0 1 151.99 289.54 L152 270.34 A0.59 0.59 0 0 0 151.41 269.75 L150.02 269.75 A0.52 0.52 0 0 1 149.5 269.23 L149.5 266.53 A0.53 0.53 0 0 1 150.03 266 L151.43 266 A0.58 0.57 0 0 0 152.01 265.43 L152.01 259.93 A0.65 0.64 88.3 0 1 152.61 259.28 Q153.05 259.25 154.25 259.25 Z" /><path d=" M185 267.81 A0.36 0.36 0 0 0 185.6 268.07 C187.04 266.76 187.62 265.63 189.86 265.58 A0.39 0.39 0 0 1 190.25 265.97 L190.25 269.89 A0.39 0.38 3.4 0 1 189.82 270.27 Q184.91 269.71 184.98 275.01 Q184.99 275.46 185 289.77 A0.48 0.47 -90 0 1 184.53 290.25 L180.95 290.25 A0.46 0.45 -90 0 1 180.5 289.79 L180.51 266.57 A0.57 0.57 0 0 1 181.08 266 L184.44 266 A0.56 0.56 0 0 1 185 266.56 L185 267.81 Z" /><path d=" M226.74 267.82 A0.36 0.36 0 0 0 227.34 268.08 C228.78 266.77 229.36 265.64 231.6 265.59 A0.39 0.39 0 0 1 231.99 265.98 L231.99 269.9 A0.39 0.38 3.3 0 1 231.56 270.28 Q226.65 269.72 226.73 275.02 Q226.74 275.47 226.76 289.78 A0.48 0.47 90 0 1 226.29 290.26 L222.71 290.27 A0.46 0.45 90 0 1 222.26 289.81 L222.25 266.59 A0.57 0.57 0 0 1 222.82 266.02 L226.18 266.01 A0.56 0.56 0 0 1 226.74 266.57 L226.74 267.82 Z" /><path d=" M270.25 267.8 A0.36 0.36 0 0 0 270.85 268.06 C272.29 266.75 272.88 265.62 275.12 265.57 A0.39 0.39 0 0 1 275.51 265.96 L275.51 269.89 A0.39 0.38 3.4 0 1 275.07 270.27 Q270.16 269.7 270.24 275.01 Q270.25 275.46 270.25 289.78 A0.48 0.47 -90 0 1 269.78 290.26 L266.19 290.26 A0.46 0.45 -90 0 1 265.74 289.8 L265.76 266.56 A0.57 0.57 0 0 1 266.33 265.99 L269.69 265.99 A0.56 0.56 0 0 1 270.25 266.55 L270.25 267.8 Z" /><path d=" M301.95 279.58 C298.23 276.51 296.25 274.22 298.06 269.11 A3.55 3.46 -17 0 1 298.58 268.15 Q301.88 264 307.41 266.2 A0.94 0.93 -79.5 0 1 308 267.06 L308.01 270.07 A0.37 0.37 0 0 1 307.45 270.39 C304.5 268.61 300.17 269.58 301.92 273.8 Q302.22 274.52 304.48 276.37 C308.18 279.46 310.17 281.76 308.36 286.86 A3.55 3.46 -17 0 1 307.83 287.82 Q304.54 291.97 299 289.77 A0.94 0.93 -79.5 0 1 298.41 288.91 L298.41 285.9 A0.37 0.37 0 0 1 298.97 285.58 C301.91 287.36 306.24 286.39 304.49 282.17 Q304.19 281.45 301.95 279.58 Z" /><path d=" M365.25 267.8 A0.36 0.36 0 0 0 365.85 268.06 C367.29 266.75 367.88 265.62 370.12 265.57 A0.39 0.39 0 0 1 370.51 265.96 L370.51 269.89 A0.39 0.38 3.4 0 1 370.07 270.27 Q365.16 269.7 365.24 275.01 Q365.25 275.46 365.25 289.78 A0.48 0.47 -90 0 1 364.78 290.26 L361.19 290.26 A0.46 0.45 -90 0 1 360.74 289.8 L360.76 266.56 A0.57 0.57 0 0 1 361.33 265.99 L364.69 265.99 A0.56 0.56 0 0 1 365.25 266.55 L365.25 267.8 Z" /><path d=" M175.9 282.68 Q175.77 283.33 175.52 284.57 Q173.97 292.39 165.99 290.07 C164.69 289.7 163.08 287.68 162.69 286.3 C161.22 281.09 159.7 265.62 168.87 265.73 C175.03 265.81 176.48 273.68 176 278.45 A0.62 0.61 -86.9 0 1 175.39 279 L167.08 279 A1.23 1.22 -4.6 0 0 165.87 280.42 L166.58 284.77 A2.25 2.23 -83.3 0 0 167.91 286.47 C170.81 287.71 171.91 284.72 171.76 282.69 A0.66 0.65 -2 0 1 172.42 281.99 L175.34 281.99 A0.57 0.57 0 0 1 175.9 282.68 ZM166.62 275.73 L170.84 275.75 A0.62 0.62 0 0 0 171.47 275.13 L171.47 274.91 A5.44 2.56 -89.7 0 0 168.94 269.46 L168.6 269.46 A5.44 2.56 -89.7 0 0 166.01 274.89 L166.01 275.11 A0.62 0.62 0 0 0 166.62 275.73 Z" /><path d=" M202.52 278.14 C202.53 272.77 203.62 265.74 210.17 265.75 C216.72 265.76 217.79 272.79 217.79 278.16 C217.78 283.53 216.69 290.55 210.14 290.55 C203.59 290.54 202.51 283.51 202.52 278.14 ZM207.32 278.11 Q207.33 286.52 210.2 286.52 Q213.1 286.51 213.09 278.11 Q213.08 269.7 210.2 269.7 Q207.31 269.71 207.32 278.11 Z" /><path d=" M278.24 278.15 C278.24 274.78 278.67 271.39 280.06 268.03 A2.22 2.2 81.3 0 1 280.67 267.21 Q284.84 263.71 287.95 267.97 A0.33 0.33 0 0 0 288.54 267.83 Q288.58 267.55 288.44 266.81 A0.68 0.67 84.3 0 1 289.09 266 L292.25 266 A0.78 0.77 -89.8 0 1 293.03 266.78 Q292.98 272.19 293 278.14 Q292.99 284.09 293.03 289.5 A0.78 0.77 89.7 0 1 292.26 290.28 L289.1 290.28 A0.68 0.67 -84.3 0 1 288.44 289.47 Q288.59 288.73 288.55 288.45 A0.33 0.33 0 0 0 287.96 288.32 Q284.85 292.58 280.68 289.08 A2.22 2.2 -81.4 0 1 280.07 288.26 C278.67 284.9 278.24 281.51 278.24 278.15 ZM285.77 269.45 A8.71 3.02 -90.1 0 0 282.77 278.17 A8.71 3.02 -90.1 0 0 285.81 286.87 A8.71 3.02 -90.1 0 0 288.81 278.15 A8.71 3.02 -90.1 0 0 285.77 269.45 Z" /><path d=" M342.67 281.99 L345.59 281.99 A0.57 0.57 0 0 1 346.15 282.68 Q346.02 283.33 345.77 284.57 Q344.22 292.38 336.24 290.06 C334.94 289.69 333.33 287.67 332.94 286.3 C331.47 281.09 329.95 265.62 339.12 265.73 C345.28 265.81 346.72 273.68 346.25 278.45 A0.62 0.61 -86.9 0 1 345.64 279 L337.33 279 A1.23 1.22 -4.6 0 0 336.12 280.42 L336.83 284.77 A2.25 2.23 -83.3 0 0 338.16 286.46 C341.06 287.7 342.16 284.72 342.01 282.69 A0.66 0.65 -2 0 1 342.67 281.99 ZM336.8 275.75 L341.2 275.73 A0.58 0.58 0 0 0 341.78 275.15 L341.78 274.99 A5.56 2.69 89.8 0 0 339.07 269.44 L338.89 269.44 A5.56 2.69 89.8 0 0 336.22 275.01 L336.22 275.17 A0.58 0.58 0 0 0 336.8 275.75 Z" /><path d=" M373.02 278.14 C373.03 272.77 374.12 265.74 380.67 265.75 C387.22 265.76 388.29 272.78 388.29 278.15 C388.28 283.53 387.19 290.55 380.64 290.54 C374.09 290.53 373.02 283.51 373.02 278.14 ZM377.82 278.12 Q377.82 286.52 380.7 286.52 Q383.59 286.52 383.59 278.11 Q383.58 269.71 380.71 269.71 Q377.81 269.72 377.82 278.12 Z" /><path d=" M130.81 289.96 L136.47 278.01 A0.72 0.7 -46.5 0 0 136.46 277.4 L130.82 266.09 A0.06 0.06 0 0 1 130.87 266.01 L135.74 266.01 A0.35 0.34 78.5 0 1 136.06 266.23 Q138.77 272.62 139.16 273.39 A0.16 0.15 -48 0 0 139.44 273.37 L142.31 266.19 A0.27 0.27 0 0 1 142.56 266.02 L146.82 266.02 A0.16 0.16 0 0 1 146.96 266.25 L141.86 277.02 A0.96 0.95 44.7 0 0 141.87 277.84 L147.98 290.1 A0.1 0.09 -14 0 1 147.89 290.24 L143.01 290.24 A0.37 0.35 -10.5 0 1 142.67 290.02 L139.06 281.5 A0.09 0.09 0 0 0 138.89 281.5 L135.5 289.98 A0.43 0.42 -78.4 0 1 135.11 290.25 L130.99 290.25 A0.21 0.2 -77.6 0 1 130.81 289.96 Z" /><rect x="193.74" y="266.01" width="4.5" height="24.24" rx="0.35" /><rect x="313" y="266" width="4.5" height="24.24" rx="0.38" /><rect x="350.75" y="266.01" width="4.5" height="24.24" rx="0.35" /></g></svg>